<svg width="430" height="341" viewBox="0 0 430 341" fill="none" xmlns="http://www.w3.org/2000/svg">
<g clip-path="url(#clip0_688_212)">
<path d="M0 0H430V291C430 318.614 407.614 341 380 341H50C22.3858 341 0 318.614 0 291V0Z" fill="#5B75F3"/>
<path d="M168.194 73.7612C202.487 107.695 177.424 177.93 141.665 190.752C115.503 200.114 77.1093 215.48 74.0723 233.231C71.0736 250.833 86.3496 275.059 65.2027 293.105C44.3629 310.92 -8.63506 278.989 -39.8986 250.311C-76.587 232.105 -99.4361 190.031 -118.26 141.061C-125.35 123.032 -126.62 105.044 -121.993 88.2011C-121.993 88.2011 -111.497 49.9127 -92.1381 38.9061C-76.9567 30.2935 -67.6454 27.2212 -33.234 21.8581C-7.19071 17.8171 27.6841 18.9326 60.1172 25.3165C99.75 33.0909 142.571 48.4112 168.194 73.7612Z" fill="#6882FF"/>
<path d="M383.665 254.817C328.933 253.347 293.103 209.596 288.425 170.715C285.028 142.286 277.958 99.2003 256.217 81.9296C234.656 64.815 198.606 56.5232 182.437 24.7587C166.463 -6.57026 190.629 -43.3399 225.877 -56.8933C261.25 -70.4934 322.651 -53.197 391.562 -26.9527C416.985 -17.4167 440.443 -3.33651 460.498 14.4239C460.498 14.4239 506.095 54.7791 513.835 79.2354C519.88 98.3986 520.756 108.299 516.321 139.867C512.942 163.742 500.056 190.243 481.224 210.406C458.246 235.067 424.555 255.911 383.665 254.817Z" fill="#0E0E5E" fill-opacity="0.3"/>
<path d="M-1.47938 263.068C9.52468 288.124 33.9782 302.736 56.4038 310.043C78.8294 317.349 105.788 321.312 129.048 314.006C139.437 311.033 148.905 304.781 156.395 295.947C164.178 286.297 167.011 274.821 162.717 262.896C159.257 253.315 149.446 244.665 150.788 236.979C152.13 229.294 158.661 224.572 161.494 217.576C166.355 205.583 162.21 194.727 156.156 184.698C141.812 160.918 151.355 136.448 144.764 109.67C141.007 94.4022 127.945 64.8668 94.0681 68.5889C81.2151 70.0364 70.6285 80.7891 63.3223 92.7136C54.704 106.844 55.0618 128.315 45.4295 141.549C37.0796 152.784 27.8648 152.681 19.6639 164.64C16.1152 169.844 13.6997 176.323 16.4731 191.315C17.487 196.725 18.1431 204.756 15.31 210.235C11.3736 217.783 2.39739 219.506 -1.89687 227.467C-7.77167 238.186 -6.31043 251.937 -1.47938 263.068Z" fill="#263238"/>
<path d="M148.761 297.532C160.003 298.083 167.846 281.747 162.568 271.133C159.258 264.412 153.174 260.208 149.834 253.487C144.317 242.493 152.25 235.669 157.797 227.501C169.725 209.821 160.779 193.692 150.818 178.528C143.274 167.017 143.333 155.954 145.182 142.169C145.182 141.962 145.54 141.997 145.51 142.169C144.556 152.508 143.959 162.606 148.492 171.911C152.22 179.493 157.916 185.421 161.465 193.21C164.395 198.913 165.667 205.552 165.093 212.152C164.518 218.751 162.128 224.965 158.274 229.879C156.007 233.326 152.309 236.531 150.818 240.218C147.568 249.248 152.757 255.555 157.677 261.586C161.435 266.17 165.61 271.305 166.147 277.956C166.922 288.054 157.2 299.152 148.701 298.152C148.313 298.118 148.284 297.532 148.761 297.532Z" fill="#263238"/>
<path d="M141.097 305.527C148.612 302.425 156.634 299.909 161.972 292.603C169.994 281.85 164.387 270.891 159.169 260.655C157.892 258.708 156.97 256.484 156.457 254.115C155.945 251.745 155.853 249.281 156.186 246.869C157.827 239.08 163.88 233.704 166.087 226.191C171.365 208.132 157.707 193.175 152.25 177.7C146.793 162.226 146.972 145.029 146.912 128.279C146.912 128.206 146.937 128.136 146.982 128.084C147.027 128.032 147.087 128.003 147.151 128.003C147.214 128.003 147.274 128.032 147.319 128.084C147.364 128.136 147.389 128.206 147.389 128.279C147.568 149.716 149.327 170.187 158.9 188.97C165.58 202.066 172.678 216.196 165.789 231.188C164.089 234.876 161.465 238.081 159.825 241.527C158.371 244.547 157.702 247.986 157.897 251.434C158.093 254.882 159.145 258.191 160.928 260.965C164.208 267.341 168.115 273.958 167.548 281.643C166.445 296.739 152.131 303.493 141.246 306.767C141.126 306.745 141.015 306.679 140.93 306.579C140.846 306.479 140.791 306.35 140.774 306.211C140.757 306.072 140.78 305.93 140.838 305.807C140.896 305.684 140.987 305.586 141.097 305.527Z" fill="#263238"/>
<path d="M-3.9542 222.055C2.99416 214.37 12.3879 211.716 12.3282 198.585C12.3282 189.418 9.34609 181.353 12.5071 172.427C15.3433 165.312 20.1921 159.526 26.2548 156.022C33.7399 151.025 41.6724 147.407 47.7261 140.066C54.3762 132.036 58.4916 121.765 62.6367 111.909C62.6367 111.702 63.0244 111.909 62.9648 111.909C58.0741 125.488 52.587 139.48 41.5829 147.786C35.8572 152.231 29.3264 155.057 23.6901 159.572C13.4316 167.637 11.7616 178.665 13.2229 192.037C13.9386 198.206 14.4455 204.306 11.195 209.683C7.94448 215.059 2.54684 217.575 -1.62814 221.711C-19.5209 239.322 -1.986 270.718 15.3998 278.61C16.1752 278.955 15.8471 280.403 15.042 280.058C1.9504 274.613 -9.9483 257.139 -10.336 240.941C-10.455 237.455 -9.94961 233.978 -8.85144 230.728C-7.75328 227.478 -6.08602 224.526 -3.9542 222.055Z" fill="#263238"/>
<path d="M-5.17736 233.36C-3.44773 224.054 2.39724 219.988 7.49669 213.543C15.4888 203.376 11.0752 190.624 12.3575 178.286C12.87 174.265 14.0668 170.4 15.8787 166.916C17.6906 163.432 20.0819 160.397 22.9143 157.987C30.3696 151.094 39.0774 146.821 45.6381 138.377C52.5563 129.292 57.0241 118.067 58.4911 106.085C58.4911 105.878 58.7893 106.085 58.7893 106.085C58.0865 114.23 55.9197 122.115 52.4278 129.237C48.9359 136.358 44.1957 142.559 38.5108 147.441C31.1748 153.645 21.96 157.987 16.8904 167.396C11.5226 177.356 14.5345 188.074 13.9083 199.206C13.8242 202.47 13.1676 205.68 11.9784 208.642C10.7892 211.604 9.09201 214.256 6.98973 216.438C3.53688 219.55 0.519382 223.258 -1.95666 227.432C-4.58972 233.788 -5.18164 241.02 -3.62667 247.834C0.399208 269.064 16.0852 285.331 32.4571 292.258C33.0237 292.5 32.7851 293.637 32.2185 293.396C24.7679 290.362 17.9086 285.659 12.0339 279.555C6.15913 273.452 1.3845 266.069 -2.01631 257.829C-5.27437 250.261 -6.38068 241.697 -5.17736 233.36Z" fill="#263238"/>
<path d="M104 218.5C113.13 232.312 137.087 298.124 179.565 298.999C193.991 299.291 228.656 232.523 244 205C249.889 185.675 214.808 171.911 204.65 174.324C191.959 177.346 180.993 247.811 172 248.5C157.574 249.587 144.059 206.73 113.929 200.553C98.4306 197.557 97.061 207.896 104 218.5Z" fill="#F7A9A0"/>
<path d="M243.727 206C246.229 200.205 255.66 172.48 256.807 164.08C257.954 155.681 259.676 131.252 254.214 129.524C248.753 127.796 247.766 134.84 247.766 134.84C247.766 134.84 247.078 124.394 241.456 123.304C235.834 122.214 234.572 133.325 234.572 133.325C234.572 133.325 233.218 122.692 227.527 122.028C221.836 121.363 222.203 132.82 222.203 132.82C222.203 132.82 221.354 123.011 216.489 124.846C210.615 126.972 213.965 144.888 212.106 154.086C211.693 156.159 201 195.527 201 195.527L243.727 206Z" fill="#F7A9A0"/>
<path d="M222.185 132.552C224.502 145.405 223.65 151.532 220 163.71C220 163.943 220.197 164.125 220.284 163.891C224.895 152.389 226.84 144.911 222.819 132.397C222.513 131.774 222.076 131.929 222.185 132.552Z" fill="#263238"/>
<path d="M234.824 132.472C236.353 146.515 235.412 153.336 232 166.817C232 167.005 232.235 167.112 232.306 166.817C236.612 153.924 238.612 146.167 235.459 132.391C235.318 131.883 234.753 131.83 234.824 132.472Z" fill="#263238"/>
<path d="M247.672 135.631C248.273 149.385 247.538 156.961 243.02 169.64C242.996 169.701 242.994 169.77 243.012 169.833C243.031 169.896 243.07 169.947 243.12 169.976C243.17 170.004 243.228 170.008 243.28 169.985C243.332 169.962 243.375 169.916 243.398 169.855C248.604 159.633 250.267 147.349 248.028 135.658C247.894 134.799 247.649 134.772 247.672 135.631Z" fill="#263238"/>
<path d="M193.5 201.102C192.912 193.112 192.843 185.083 193.293 177.081C194.212 169.668 206.528 143.474 211.675 146.198C218.27 149.682 213.766 166.42 210.618 174.278C210.618 174.278 225.921 182.373 224.956 195.234C223.991 208.096 193.5 201.102 193.5 201.102Z" fill="#F7A9A0"/>
<path d="M213.163 147.041C216.968 155.321 212.485 165.517 210.057 173.53C210.013 173.647 209.994 173.775 210.002 173.903C210.009 174.031 210.042 174.154 210.099 174.263C210.155 174.371 210.233 174.46 210.325 174.523C210.417 174.586 210.52 174.619 210.626 174.621C216.531 178.561 223.923 186.202 224.689 194.8C224.689 195.067 224.995 195.067 224.995 194.8C225.214 185.43 218.434 177.203 211.763 173.503C214.365 165.33 218.477 154.868 213.228 147.121C213.184 146.961 213.141 146.988 213.163 147.041Z" fill="#263238"/>
<path d="M175.781 211L226 249.312C226 249.312 198.95 296.493 182.972 300.544C166.993 304.595 121 272 108.902 233.024C82.3547 204.959 92.5581 195.295 121 203C149.442 210.705 156.31 237.238 160.762 234.908C165.213 232.578 175.781 211 175.781 211Z" fill="#FFC727"/>
<path d="M169.394 298.289C141.928 287.123 108.976 267.272 88.1306 245.422C56.4008 212.095 64.8402 198.62 94.9299 204.237L169.394 298.289Z" fill="#263238"/>
<path d="M142.886 340.543V340.129C142.886 340.129 156.157 320.485 154.815 300.634C153.354 278.094 119.924 215.577 116.822 211.786C104.238 196.553 85.7785 186.696 61.9811 209.718C37.1101 233.843 11.2849 293.672 -6.60791 340.681L142.886 340.543Z" fill="#FFC727"/>
<path d="M44.5651 340.543C54.1974 314.213 71.4043 273.304 82.0505 248.766C101.762 203.136 71.7919 200.516 60.43 214.026C38.1237 240.322 -0.614182 288.951 -18 325.93V340.543H44.5651Z" fill="#F7A9A0"/>
<path d="M48.5019 340.542C58.1044 315.176 75.3411 271.614 86.047 246.318C101.673 209.2 84.0191 184.765 55.7784 216.127C33.1738 241.251 -0.673373 291.052 -17.9697 325.688V340.542H48.5019Z" fill="#FFC727"/>
<path d="M49.7242 340.543C50.4399 338.854 51.096 337.303 51.5135 336.2C54.1079 329.308 56.7322 322.415 59.267 315.315C61.8018 308.216 64.4261 301.357 66.8416 294.292C67.2591 293.086 67.7064 291.914 68.1239 290.846C68.6905 290.364 73.4321 282.506 74.7741 280.783C75.0126 280.507 74.5951 280.093 74.4162 280.369C73.1839 282.223 71.8278 283.963 70.3605 285.573L69.6448 286.573C71.285 282.023 72.9251 277.44 74.446 272.787C74.446 272.442 74.1478 272.201 74.0285 272.511C70.4798 281.954 68.0643 287.641 64.8734 295.085C61.6825 302.529 59.1477 309.698 56.3445 317.039C53.5413 324.379 50.8574 331.789 48.1735 339.199C48.1735 339.578 47.8454 340.026 47.6665 340.543H49.7242Z" fill="#263238"/>
<path d="M81.9012 202.687C82.6765 205.789 96.4838 225.226 108.74 223.813C112.736 223.331 111.484 197.966 111.484 197.966L111.752 196.07L115.629 169.498L88.0444 151.336L84.0483 148.958C84.0483 148.958 83.4221 156.299 82.7064 165.466C82.7064 165.88 82.7064 166.328 82.7064 166.776C82.7064 167.224 82.7064 167.775 82.7064 168.258C82.7064 169.636 82.4678 171.015 82.3783 172.428C82.2889 173.841 82.2292 174.496 82.1696 175.633L81.9907 179.079C81.5109 186.938 81.481 194.824 81.9012 202.687Z" fill="#F7A9A0"/>
<path d="M82.7666 165.466C85.396 172.698 89.3561 179.182 94.372 184.466C99.3879 189.751 105.339 193.711 111.813 196.07L115.689 169.498L88.1046 151.336L84.1086 148.958C84.1086 148.958 83.4823 156.23 82.7666 165.466Z" fill="#263238"/>
<path d="M81.5133 147.062C81.5133 147.062 70.7777 134.034 65.5291 138.687C60.2806 143.34 69.6743 163.294 76.8015 165.017C77.6987 165.311 78.6381 165.392 79.5629 165.253C80.4877 165.115 81.3786 164.762 82.1816 164.214C82.9846 163.666 83.683 162.936 84.2346 162.067C84.7861 161.198 85.1792 160.208 85.3901 159.159L81.5133 147.062Z" fill="#F7A9A0"/>
<path d="M68.3325 144.34C68.3325 144.34 68.3325 144.512 68.3325 144.547C70.6585 145.415 72.8019 146.835 74.625 148.716C76.4481 150.598 77.9108 152.899 78.9191 155.472C78.5718 154.947 78.1278 154.519 77.6193 154.218C77.1108 153.916 76.5506 153.75 75.9795 153.73C75.4083 153.71 74.8405 153.838 74.3173 154.103C73.7941 154.369 73.3287 154.766 72.9548 155.265C72.9548 155.265 72.9548 155.61 73.1338 155.541C73.9182 155.084 74.8074 154.924 75.6747 155.085C76.5421 155.246 77.3435 155.719 77.9648 156.437C79.0187 157.626 79.9585 158.944 80.768 160.366C81.0364 160.814 81.7819 160.366 81.5434 159.883C80.8276 152.784 74.8932 143.892 68.3325 144.34Z" fill="#263238"/>
<path d="M144.347 121.284C153.98 167.259 131.226 179.08 122.667 181.458C114.884 183.629 88.1341 189.867 74.4462 145.305C60.7582 100.743 76.2355 81.0646 93.8002 75.0334C111.365 69.0022 134.745 75.3435 144.347 121.284Z" fill="#F7A9A0"/>
<path d="M135.55 116.356C134.596 116.356 133.702 116.356 132.568 116.356C131.578 116.459 130.585 116.194 129.735 115.597C129.494 115.348 129.333 115.011 129.278 114.641C129.224 114.272 129.28 113.892 129.437 113.564C129.82 112.966 130.334 112.497 130.927 112.206C131.519 111.916 132.169 111.813 132.807 111.91C134.116 111.883 135.389 112.41 136.385 113.392C136.57 113.626 136.698 113.912 136.756 114.222C136.814 114.532 136.799 114.853 136.715 115.155C136.63 115.456 136.477 115.726 136.273 115.937C136.068 116.148 135.819 116.292 135.55 116.356Z" fill="#263238"/>
<path d="M107.786 122.8C108.711 122.49 109.516 122.008 110.411 121.594C111.39 121.324 112.262 120.681 112.886 119.767C113.041 119.445 113.095 119.071 113.041 118.707C112.987 118.344 112.827 118.013 112.588 117.768C112.06 117.346 111.442 117.098 110.802 117.049C110.161 117.001 109.521 117.154 108.949 117.493C107.698 117.961 106.637 118.941 105.967 120.25C105.839 120.563 105.791 120.912 105.828 121.256C105.865 121.6 105.986 121.924 106.177 122.192C106.368 122.459 106.62 122.658 106.905 122.766C107.19 122.874 107.496 122.886 107.786 122.8Z" fill="#263238"/>
<path d="M111.872 130.76C107.429 131.346 108.89 141.617 112.916 141.1C116.942 140.583 115.63 130.243 111.872 130.76Z" fill="#263238"/>
<path d="M110.202 131.589C109.516 132.312 108.89 133.484 107.965 133.76C107.041 134.036 105.938 133.14 104.983 132.209C104.983 132.209 104.804 132.209 104.983 132.381C105.222 134.346 106.146 136.241 107.965 136.207C109.785 136.172 110.649 134.242 110.948 132.175C110.828 131.795 110.5 131.313 110.202 131.589Z" fill="#263238"/>
<path d="M133.969 125.213C138.353 124.076 139.934 134.277 135.938 135.345C131.942 136.414 130.301 126.212 133.969 125.213Z" fill="#263238"/>
<path d="M135.937 125.556C136.712 125.935 137.547 126.762 138.412 126.659C139.277 126.556 139.933 125.246 140.38 124.074C140.738 126.039 140.38 128.175 138.949 128.899C137.517 129.623 136.145 128.106 135.43 126.245C135.46 125.97 135.609 125.384 135.937 125.556Z" fill="#263238"/>
<path d="M119.446 157.678C120.191 158.332 120.937 159.297 121.951 159.263C123.006 159.123 124.023 158.724 124.933 158.091C125.112 158.091 124.933 158.091 124.933 158.091C124.603 158.774 124.117 159.338 123.528 159.721C122.938 160.104 122.269 160.291 121.593 160.262C121.014 160.162 120.473 159.866 120.038 159.413C119.603 158.959 119.293 158.368 119.147 157.712C119.147 157.678 119.356 157.574 119.446 157.678Z" fill="#263238"/>
<path d="M129.317 143.995C129.936 146.261 130.454 148.561 130.868 150.888C130.868 151.095 130.45 151.267 129.794 151.439C128.18 152.098 126.44 152.234 124.764 151.833C123.087 151.433 121.537 150.51 120.281 149.165C120.251 149.124 120.234 149.072 120.232 149.018C120.23 148.964 120.244 148.911 120.272 148.867C120.299 148.823 120.339 148.791 120.384 148.777C120.429 148.762 120.477 148.765 120.52 148.786C123.305 150.32 126.455 150.733 129.466 149.957C129.466 149.337 127.11 142.134 127.409 142.031C128.935 141.902 130.469 142.006 131.971 142.341C129.615 132.588 126.007 123.386 123.741 113.633C123.731 113.564 123.741 113.494 123.769 113.433C123.798 113.372 123.843 113.324 123.898 113.297C123.953 113.269 124.014 113.263 124.072 113.28C124.13 113.297 124.181 113.336 124.218 113.391C128.426 123.149 131.782 133.366 134.238 143.892C134.357 145.167 130.152 144.236 129.317 143.995Z" fill="#263238"/>
<path d="M129.407 150.647C128.548 152.688 127.243 154.435 125.62 155.713C124.731 156.366 123.691 156.691 122.638 156.644C120.312 156.471 119.835 154.128 119.894 152.025C119.936 150.859 120.096 149.702 120.372 148.579C123.113 150.371 126.281 151.097 129.407 150.647Z" fill="#263238"/>
<path d="M125.62 155.713C124.731 156.366 123.691 156.69 122.638 156.644C120.312 156.471 119.835 154.128 119.894 152.025C121.068 151.817 122.268 152.066 123.305 152.734C124.342 153.402 125.156 154.45 125.62 155.713Z" fill="#FF99BA"/>
<path d="M77.2786 147.923C83.9585 146.924 82.5569 130.691 82.5569 130.691C82.5569 130.691 95.9169 127.486 96.2747 104.258C97.099 111 96.2079 117.873 93.7101 124.04C93.7101 124.04 116.702 115.424 122.458 90.2652C122.458 90.2652 120.639 102.81 117.686 107.842C123.271 104.275 127.644 98.6256 130.092 91.8161C130.092 91.8161 136.593 103.947 140.44 106.808C140.44 106.808 130.778 59.4545 93.561 73.7915C93.561 73.7915 70.032 81.4425 65.4395 105.395C60.847 129.347 77.2786 147.923 77.2786 147.923Z" fill="#263238"/>
<path d="M84.2869 195.967C75.4993 198.366 67.4584 203.531 61.0562 210.89C61.0562 210.89 87.3287 229.81 109.068 225.399C118.85 223.4 123.979 204.341 123.979 204.341C123.979 204.341 104.655 192.831 84.2869 195.967Z" fill="#F7A9A0"/>
<path d="M58.73 216.059C64.6664 220.09 70.8804 223.548 77.3087 226.398C83.6382 229.354 90.2922 231.279 97.0802 232.119C100.429 232.567 103.811 232.567 107.16 232.119C108.823 231.868 110.467 231.477 112.08 230.947C113.637 230.404 115.1 229.553 116.404 228.432C119.062 226.028 121.342 223.113 123.144 219.816C125.049 216.541 126.705 213.082 128.094 209.477C126.311 217.395 122.619 224.566 117.448 230.155C116.048 231.557 114.414 232.612 112.647 233.257C110.951 233.87 109.216 234.331 107.458 234.635C103.952 235.22 100.399 235.324 96.8714 234.945C89.8865 234.024 83.0665 231.862 76.6526 228.535C70.2567 225.245 64.2369 221.055 58.73 216.059Z" fill="#263238"/>
</g>
<defs>
<clipPath id="clip0_688_212">
<path d="M0 0H430V291C430 318.614 407.614 341 380 341H50C22.3858 341 0 318.614 0 291V0Z" fill="white"/>
</clipPath>
</defs>
</svg>
