<svg width="430" height="303" viewBox="0 0 430 303" fill="none" xmlns="http://www.w3.org/2000/svg">
<g clip-path="url(#clip0_688_144)">
<path d="M430 0H0V253C0 280.614 22.3858 303 50 303H380C407.614 303 430 280.614 430 253V0Z" fill="#5B75F3"/>
<path d="M261.806 65.5414C227.513 95.6936 252.576 158.102 288.335 169.495C314.497 177.814 352.891 191.467 355.928 207.241C358.926 222.881 343.65 244.407 364.797 260.442C385.637 276.272 438.635 247.899 469.899 222.417C506.587 206.24 529.436 168.854 548.26 125.341C555.35 109.322 556.62 93.3385 551.993 78.3721C551.993 78.3721 541.497 44.3504 522.138 34.5704C506.957 26.9175 497.645 24.1876 463.234 19.4222C437.191 15.8315 402.316 16.8227 369.883 22.4952C330.25 29.4032 287.429 43.0163 261.806 65.5414Z" fill="#6882FF"/>
<path d="M4.70673 183.76C59.4393 182.454 95.2695 143.579 99.9468 109.031C103.344 83.7692 110.414 45.4852 132.155 30.1391C153.716 14.9316 189.766 7.5638 205.935 -20.661C221.909 -48.4987 197.743 -81.1708 162.495 -93.2139C127.122 -105.298 65.7213 -89.9295 -3.19022 -66.6097C-28.6126 -58.1364 -52.0712 -45.6253 -72.1263 -29.844C-72.1263 -29.844 -117.723 6.01408 -125.463 27.7451C-131.508 44.7728 -132.384 53.5702 -127.949 81.6197C-124.57 102.835 -111.684 126.382 -92.8524 144.298C-69.8741 166.211 -36.1828 184.732 4.70673 183.76Z" fill="#0E0E5E" fill-opacity="0.3"/>
<path d="M336.075 280.433C336.924 281.895 422.687 297.903 426.966 297.285C427.172 297.259 427.374 297.207 427.568 297.13C432.979 295.442 459.515 276.912 461.531 275.354C466.506 271.465 452.855 237.225 447.833 231.172C444.496 227.152 437.6 224.785 437.6 224.785C437.6 224.785 425.634 163.798 414.989 149.86C412.325 146.375 358.969 137.669 348.795 140.726C344.445 142.034 333.069 150.894 332.55 152.702C331.961 155.39 335.273 278.958 336.075 280.433Z" fill="#37474F"/>
<path d="M336.075 280.432C336.923 281.895 422.687 297.903 426.966 297.284C427.172 297.258 427.374 297.206 427.567 297.13C422.404 273.415 398.095 162.109 397.105 161.276C396.115 160.444 344.916 153.57 332.55 152.749C331.96 155.389 335.273 278.957 336.075 280.432Z" fill="#263238"/>
<path d="M386.377 150.24C387.356 149.538 389.56 137.788 388.299 135.207C386.884 132.317 366.183 130.748 364.663 132.829C363.142 134.91 360.926 146.648 361.491 147.16C362.057 147.671 365.417 148.563 365.983 147.873C366.549 147.184 367.869 137.396 368.341 136.932C368.812 136.468 383.277 137.538 383.666 138.359C384.055 139.18 381.485 148.884 382.004 149.396C382.523 149.907 385.423 150.894 386.377 150.24Z" fill="#37474F"/>
<path d="M347.757 165.475C332.82 199.109 296.711 255.017 280.561 241.174C256.394 220.48 240.054 174.692 233.582 156.175C229.94 145.804 282.317 128.441 285.524 137.86C290.086 151.251 297.242 179.212 301.391 183.172C303.584 185.253 320.713 160.956 333.704 149.432C352.425 132.829 352.578 154.736 347.757 165.475Z" fill="#D3766A"/>
<path d="M220.474 140.583C225.189 151.168 243.085 169.055 249.05 171.695C255.015 174.335 286.515 145.53 285.855 138.882C285.194 132.234 266.403 96.7334 255.994 91.3102C245.584 85.887 215.641 129.618 220.474 140.583Z" fill="#D3766A"/>
<path d="M283.391 131.437C283.391 131.437 282.636 116.393 286.408 103.667C289.568 92.9634 295.462 77.5026 289.827 75.5164C278.251 71.5442 263.562 110.268 263.562 110.268C263.562 110.268 259.801 128.404 270.918 133.352C277.897 136.468 283.391 131.437 283.391 131.437Z" fill="#D3766A"/>
<path d="M270.341 102.894C269.575 108.983 262.903 104.595 262.903 104.595C262.903 104.595 271.001 113.253 267.818 119.223C264.718 124.98 256.843 119.378 256.265 118.985C256.69 119.449 263.928 127.608 260.109 133.257C256.136 139.144 249.18 132.163 248.732 131.711C249.004 132.27 252.387 139.774 248.508 143.426C241.848 149.669 232.676 130.724 225.615 128.607C225.615 128.607 220.687 140.262 220.475 140.571C220.475 140.571 211.386 122.732 214.745 113.217C215.212 111.836 216.133 110.657 217.355 109.876C218.577 109.095 220.028 108.759 221.465 108.924C221.465 108.924 217.928 103.489 220.781 98.9339C222.255 96.5553 227.277 96.9121 227.277 96.9121C227.277 96.9121 224.601 92.4404 227.407 88.587C229.635 85.4711 234.315 86.2085 234.315 86.2085C234.315 86.2085 233.725 80.7258 237.026 78.2877C243.663 73.4354 271.956 89.8596 270.341 102.894Z" fill="#D3766A"/>
<path d="M235.081 86.3041C234.986 86.3041 235.022 86.1138 235.139 86.1495C245.749 89.2535 256.465 95.9493 263.291 104.798C263.515 105.083 263.138 105.583 262.831 105.309C254.072 97.5429 245.679 91.3586 235.081 86.3041Z" fill="#263238"/>
<path d="M227.171 96.8415C227.053 96.7821 227.171 96.5918 227.265 96.6275C238.181 99.898 250.053 107.771 256.737 118.903C256.973 119.284 256.796 119.854 256.501 119.438C251.491 112.374 236.731 101.337 227.171 96.8415Z" fill="#263238"/>
<path d="M248.932 132.663C242.118 122.233 232.675 115.061 221.935 109.103C221.794 109.02 221.935 108.83 222.053 108.865C228.089 110.34 234.549 114.812 239.277 118.808C243.742 122.383 247.197 127.079 249.297 132.425C249.38 132.639 249.073 132.889 248.932 132.663Z" fill="#263238"/>
<path d="M263.114 104.583C263.373 104.939 262.572 104.951 262.831 105.308C263.916 106.807 269.669 116.416 267.028 119.401C264.918 121.78 260.261 120.59 258.646 119.401L254.603 116.452L257.385 120.638C258.635 122.49 259.579 124.534 260.179 126.692C260.508 127.665 260.63 128.698 260.537 129.723C260.443 130.748 260.136 131.741 259.636 132.638C259.159 133.474 258.411 134.119 257.518 134.466C256.626 134.812 255.642 134.839 254.732 134.541C252.708 133.821 250.898 132.593 249.475 130.973L245.384 126.668L247.836 132.055C248.53 133.57 249.025 135.169 249.309 136.812C249.645 138.344 249.522 139.942 248.956 141.403C248.678 142.05 248.226 142.604 247.65 143.004C247.075 143.403 246.4 143.632 245.702 143.663C244.128 143.509 242.63 142.902 241.387 141.915C238.671 139.819 236.121 137.512 233.76 135.017C232.581 133.827 231.273 132.567 229.976 131.449C228.739 130.202 227.251 129.237 225.614 128.618C227.148 129.405 228.517 130.483 229.646 131.794C230.825 133.054 232.004 134.363 233.124 135.671C235.365 138.383 237.851 140.88 240.55 143.128C241.996 144.371 243.77 145.16 245.655 145.399C246.693 145.415 247.713 145.125 248.59 144.566C249.467 144.006 250.164 143.2 250.594 142.248C251.342 140.474 251.551 138.516 251.196 136.622C250.901 134.806 250.378 133.036 249.64 131.354L248.001 132.436C249.658 134.37 251.787 135.834 254.178 136.682C255.519 137.105 256.963 137.051 258.269 136.527C259.533 135.969 260.598 135.035 261.322 133.851C261.966 132.709 262.361 131.441 262.481 130.133C262.601 128.825 262.443 127.505 262.018 126.263C261.326 123.903 260.255 121.673 258.847 119.663L257.585 120.852C259.672 122.279 264.729 124.206 268.478 120.912C272.722 115.869 264.694 106.248 263.114 104.583Z" fill="#263238"/>
<path d="M262.901 104.596C264.06 105.071 265.285 105.36 266.532 105.452C267.032 105.508 267.538 105.427 267.996 105.217C268.455 105.008 268.849 104.678 269.138 104.263C269.643 103.265 269.851 102.142 269.739 101.028C269.668 99.8385 269.538 98.4946 269.35 97.1626C270.162 98.2553 270.741 99.5069 271.047 100.838C271.256 101.563 271.321 102.323 271.238 103.074C271.155 103.825 270.926 104.553 270.564 105.214C270.089 105.894 269.424 106.416 268.654 106.713C267.909 106.947 267.115 106.976 266.355 106.796C265.003 106.448 263.794 105.678 262.901 104.596Z" fill="#263238"/>
<path d="M288.696 138.883L234.184 177.178C234.184 177.178 266.745 245.242 286.868 245.051C306.992 244.861 336.063 193.912 346.131 171.862C356.198 149.812 350.162 131.152 329.886 151.252C309.609 171.351 302.347 179.592 301.687 179.319C300.414 178.796 288.696 138.883 288.696 138.883Z" fill="#407BFF"/>
<path d="M234.185 177.177C234.185 177.177 256.76 224.38 275.952 240.091C279.796 243.243 283.509 245.122 286.881 245.086C307.004 244.908 336.075 193.946 346.143 171.897C352.379 158.255 352.438 145.899 346.768 143.247C343.231 141.605 337.619 143.627 329.898 151.286C309.503 171.504 302.359 179.627 301.699 179.354C300.426 178.83 288.731 138.917 288.731 138.917L234.185 177.177Z" fill="#E44F9C"/>
<path d="M247.081 182.114C248.52 180.925 249.97 179.736 251.431 178.546L260.344 171.482C266.238 166.808 272.309 162.324 278.404 157.9C281.87 155.379 285.265 152.738 288.825 150.372C288.86 150.351 288.901 150.343 288.941 150.351C288.98 150.359 289.016 150.381 289.041 150.413C289.065 150.445 289.078 150.485 289.075 150.526C289.072 150.567 289.055 150.605 289.026 150.633C286.197 153.155 283.131 155.462 280.22 157.852C277.308 160.243 274.325 162.61 271.378 164.988C265.444 169.642 259.448 174.201 253.388 178.665C251.691 179.926 250.029 181.258 248.272 182.435C247.376 183.042 246.527 183.708 245.62 184.302C244.712 184.897 243.757 185.42 242.861 186.051C242.841 186.066 242.815 186.073 242.79 186.07C242.764 186.067 242.741 186.053 242.725 186.033C242.71 186.012 242.703 185.986 242.706 185.961C242.709 185.935 242.723 185.912 242.743 185.896C244.217 184.695 245.596 183.351 247.081 182.114Z" fill="#263238"/>
<path d="M301.228 178.082C303.305 183.748 305.014 189.544 306.344 195.434C307.052 198.348 307.618 201.285 308.172 204.223C308.753 207.136 309.146 210.083 309.351 213.047C309.351 213.154 309.197 213.166 309.162 213.047C308.266 210.217 307.606 207.267 306.946 204.365C306.286 201.464 305.578 198.55 304.93 195.624C303.621 189.785 302.101 183.993 300.969 178.118C300.976 178.09 300.991 178.066 301.012 178.047C301.033 178.028 301.059 178.016 301.087 178.012C301.114 178.008 301.143 178.013 301.168 178.025C301.193 178.038 301.214 178.057 301.228 178.082Z" fill="#263238"/>
<path opacity="0.1" d="M275.952 240.093C279.796 243.244 283.509 245.123 286.881 245.088C307.004 244.909 336.075 193.948 346.143 171.898C352.379 158.257 352.438 145.9 346.768 143.248L275.952 240.093Z" fill="black"/>
<path d="M431.234 303.469H294.485C295.392 297.023 322.778 167.889 334.425 148.207C339.954 138.847 362.647 132.686 377.89 147.541C407.009 175.953 432.343 302.197 431.234 303.469Z" fill="#FFC727"/>
<path d="M311.472 222.93C311.826 221.158 312.203 219.362 312.651 217.638C313.441 214.177 314.301 210.74 315.209 207.303C316.494 202.474 317.873 197.646 319.311 192.841C319.382 192.08 319.524 191.307 319.63 190.546C319.771 189.511 319.901 188.476 320.066 187.442C320.384 185.36 320.726 183.279 321.033 181.198C321.033 181.173 321.042 181.148 321.06 181.131C321.078 181.113 321.102 181.103 321.127 181.103C321.152 181.103 321.176 181.113 321.194 181.131C321.211 181.148 321.221 181.173 321.221 181.198C321.172 183.33 321.011 185.458 320.738 187.573C320.738 187.917 320.643 188.262 320.585 188.607C320.761 188.036 320.926 187.418 321.103 186.871C321.704 184.968 322.376 183.089 323.001 181.198C323.626 179.307 324.18 177.285 324.97 175.394C324.978 175.372 324.994 175.354 325.015 175.344C325.036 175.334 325.06 175.333 325.082 175.341C325.104 175.348 325.122 175.365 325.132 175.386C325.142 175.407 325.143 175.431 325.135 175.454C324.758 177.214 324.215 178.926 323.756 180.663C323.296 182.399 322.883 184.052 322.459 185.753C321.587 189.19 320.585 192.603 319.677 196.028C317.85 202.879 316.14 209.777 314.23 216.603C313.712 218.47 313.193 220.338 312.651 222.205C312.108 224.072 311.578 226.153 310.835 228.044C310.835 228.139 310.635 228.128 310.647 228.044C310.832 226.326 311.107 224.619 311.472 222.93Z" fill="#263238"/>
<path d="M334.542 152.987C335.257 155.648 336.876 157.972 339.116 159.552C341.592 161.098 344.704 161.074 347.474 160.741C353.369 160.134 358.862 157.339 363.708 153.783C365.087 152.761 366.419 151.667 367.739 150.56C369.046 149.493 370.282 148.34 371.441 147.112C371.523 147.028 371.641 147.111 371.559 147.242C370.439 148.432 369.39 149.74 368.258 150.953C367.147 152.122 365.965 153.223 364.721 154.247C362.283 156.309 359.588 158.04 356.705 159.397C353.882 160.724 350.864 161.58 347.769 161.93C344.845 162.251 341.545 162.192 338.986 160.467C336.524 158.674 334.836 155.997 334.271 152.987C334.271 152.969 334.274 152.951 334.281 152.934C334.288 152.918 334.298 152.903 334.311 152.89C334.323 152.877 334.338 152.867 334.355 152.86C334.371 152.853 334.389 152.85 334.407 152.85C334.424 152.85 334.442 152.853 334.458 152.86C334.475 152.867 334.49 152.877 334.502 152.89C334.515 152.903 334.525 152.918 334.532 152.934C334.539 152.951 334.542 152.969 334.542 152.987Z" fill="#263238"/>
<path d="M343.762 154.855C349.031 156.306 363.307 151.608 368.518 142.903C368.872 142.308 368.2 135.838 367.74 127.941C367.492 123.184 367.316 117.797 367.504 112.909C367.504 111.91 336.853 119.152 336.853 119.152C336.853 119.152 339.435 129.523 339.058 138.038C339.018 138.712 338.919 139.38 338.763 140.036C338.763 140.132 338.763 140.239 338.763 140.369C337.891 144.151 337.36 153.107 343.762 154.855Z" fill="#D3766A"/>
<path d="M338.704 140.036C338.712 140.147 338.712 140.258 338.704 140.369C339.737 140.544 340.781 140.639 341.828 140.655C358.745 140.952 365.052 120.092 366.726 112.837C362.011 113.229 337.832 118.926 336.889 119.14C336.889 119.14 339.47 129.499 339.093 138.026C339.022 138.706 338.892 139.379 338.704 140.036Z" fill="#263238"/>
<path d="M371.441 77.5748C374.801 88.433 369.272 119.89 361.645 126.931C350.587 137.159 332.385 138.229 323.756 124.79C315.397 111.708 323.308 70.9028 331.843 64.4925C344.41 55.0376 366.502 61.5311 371.441 77.5748Z" fill="#D3766A"/>
<path d="M340.166 96.8289C340.166 96.7576 340.319 96.9598 340.296 97.043C339.871 99.16 339.73 101.646 341.475 102.68C341.475 102.68 341.475 102.811 341.475 102.787C339.211 102.062 339.423 98.7556 340.166 96.8289Z" fill="#263238"/>
<path d="M342.429 94.9979C345.848 95.3309 344.952 102.217 341.769 101.908C338.586 101.599 339.552 94.6649 342.429 94.9979Z" fill="#263238"/>
<path d="M328.883 95.2709C328.883 95.1876 328.695 95.3422 328.695 95.4374C328.482 97.5781 327.881 99.9924 325.877 100.444C325.806 100.444 325.806 100.575 325.877 100.563C328.247 100.551 329.001 97.3759 328.883 95.2709Z" fill="#263238"/>
<path d="M327.28 92.7849C323.921 92.0714 322.753 98.9217 325.866 99.5758C328.978 100.23 330.098 93.3915 327.28 92.7849Z" fill="#263238"/>
<path d="M345.505 92.1555C344.61 91.7868 343.843 91.3111 342.983 90.8592C342.02 90.537 341.19 89.9011 340.625 89.0514C340.504 88.7498 340.485 88.4167 340.571 88.103C340.656 87.7894 340.84 87.5126 341.096 87.3151C341.661 87.0052 342.296 86.8519 342.938 86.8707C343.58 86.8895 344.206 87.0798 344.751 87.4221C345.957 87.9527 346.927 88.9141 347.474 90.1218C347.578 90.4011 347.601 90.7044 347.54 90.9962C347.479 91.2881 347.337 91.5564 347.13 91.7698C346.924 91.9831 346.661 92.1327 346.374 92.2011C346.086 92.2694 345.785 92.2536 345.505 92.1555Z" fill="#263238"/>
<path d="M325.099 88.9673C326.04 88.9059 326.977 88.7907 327.905 88.6224C328.909 88.6371 329.89 88.3196 330.699 87.7186C330.914 87.4761 331.044 87.1691 331.07 86.8447C331.095 86.5203 331.014 86.1964 330.84 85.9227C330.42 85.4305 329.877 85.0607 329.268 84.8516C328.658 84.6424 328.004 84.6016 327.374 84.7334C326.058 84.8171 324.819 85.389 323.896 86.339C323.69 86.5671 323.554 86.8518 323.507 87.1573C323.46 87.4628 323.503 87.7755 323.632 88.0563C323.76 88.337 323.968 88.5732 324.229 88.7353C324.49 88.8973 324.793 88.9781 325.099 88.9673Z" fill="#263238"/>
<path d="M340.531 116.607C339.953 117.047 339.352 117.665 338.586 117.63C337.8 117.51 337.048 117.222 336.381 116.785C336.369 116.771 336.351 116.762 336.332 116.761C336.314 116.76 336.295 116.767 336.281 116.779C336.267 116.792 336.258 116.81 336.257 116.829C336.256 116.848 336.263 116.866 336.275 116.88C336.523 117.34 336.889 117.725 337.335 117.993C337.781 118.26 338.291 118.402 338.81 118.403C339.252 118.336 339.666 118.144 340.004 117.85C340.342 117.555 340.59 117.169 340.72 116.738C340.79 116.619 340.613 116.547 340.531 116.607Z" fill="#263238"/>
<path d="M332.373 111.647C333.117 112.938 334.177 114.015 335.45 114.775C336.166 115.181 336.993 115.343 337.808 115.239C339.553 115.013 339.8 113.455 339.67 112.075C339.591 111.341 339.425 110.618 339.175 109.923C337.152 111.224 334.766 111.829 332.373 111.647Z" fill="white"/>
<path d="M339.141 109.923C338.494 110.698 337.694 111.328 336.793 111.774C335.892 112.22 334.909 112.473 333.906 112.516C333.032 112.571 332.154 112.495 331.301 112.29C331.136 112.269 330.974 112.229 330.818 112.171L330.37 112.04C330.259 112.004 330.163 111.932 330.097 111.835C330.031 111.738 329.999 111.622 330.004 111.505C330 111.434 330 111.362 330.004 111.291V111.101C330.169 109.46 330.653 106.974 330.653 106.974C330.028 107.2 326.81 108.163 326.975 107.319C328.318 100.278 329.827 92.4408 332.645 85.7093C332.666 85.6684 332.701 85.6362 332.743 85.618C332.785 85.5997 332.832 85.5966 332.876 85.6091C332.921 85.6216 332.959 85.649 332.986 85.6867C333.012 85.7245 333.025 85.7702 333.022 85.8164C331.985 92.6429 329.78 99.2435 328.625 106.034C329.77 105.666 330.961 105.466 332.162 105.44C332.386 105.535 331.136 110.197 331.124 110.958V111.041C333.812 111.755 335.993 111.196 338.881 109.697C339.141 109.614 339.294 109.781 339.141 109.923Z" fill="#263238"/>
<path d="M366.667 102.799C360.573 102.799 361.799 76.6342 361.799 76.6342C361.799 76.6342 355.574 79.5837 350.458 79.9524C346.459 80.1973 342.445 79.9899 338.492 79.3339C337.643 79.0961 348.253 74.9098 348.253 74.9098C348.253 74.9098 334.236 75.766 330.334 73.435C326.432 71.104 326.798 70.105 327.045 68.6778C327.293 67.2507 337.349 55.5004 355.456 58.8899C358.916 59.4421 362.186 60.8497 364.976 62.9872C367.765 65.1246 369.986 67.9254 371.442 71.1397C371.442 71.1397 376.782 80.4281 376.476 84.7333C376.016 90.5133 373.139 102.799 366.667 102.799Z" fill="#263238"/>
<path d="M363.708 103.585C363.708 103.585 370.899 93.5233 375.438 96.1279C379.977 98.7324 374.46 113.373 369.06 115.311C368.386 115.608 367.659 115.764 366.923 115.769C366.187 115.774 365.458 115.629 364.779 115.343C364.101 115.056 363.487 114.633 362.974 114.101C362.462 113.568 362.062 112.936 361.798 112.243L363.708 103.585Z" fill="#D3766A"/>
<path d="M373.799 100.29C373.882 100.29 373.905 100.397 373.799 100.432C370.015 101.907 367.987 105.404 366.549 109.031C367.728 107.639 369.225 106.89 371.064 108.27C371.158 108.341 371.064 108.496 370.958 108.472C370.3 108.249 369.59 108.236 368.925 108.436C368.26 108.637 367.673 109.039 367.245 109.59C366.543 110.524 365.939 111.528 365.441 112.587C365.252 112.92 364.651 112.73 364.781 112.337V112.254C364.769 107.413 368.588 100.694 373.799 100.29Z" fill="#263238"/>
<path d="M343.454 58.1292C347.396 56.4966 351.555 55.4587 355.797 55.0489C360.513 54.6683 375.366 56.5355 378.785 59.711C382.204 62.8864 382.487 77.0747 382.487 79.1441C382.487 81.2134 380.99 93.6773 376.357 96.4721C371.724 99.267 372.301 78.0261 365.546 70.6406C358.791 63.2551 343.454 58.1292 343.454 58.1292Z" fill="#FFC727"/>
<path opacity="0.1" d="M343.455 58.1286C343.455 58.1286 358.78 63.2664 365.535 70.6519C372.29 78.0374 371.736 99.2783 376.369 96.4834C378.408 95.2941 379.458 93.3199 380.424 90.0375C379.776 83.7817 377.736 74.0414 372.927 67.1316C368.412 60.6499 360.301 57.0939 351.506 55.6667C348.759 56.2597 346.066 57.0832 343.455 58.1286Z" fill="black"/>
<path d="M374.542 108.995C374.412 103.31 369.413 87.897 363.837 78.9297C358.261 69.9624 340.908 64.0754 338.433 64.0754C332.444 64.1349 330.334 65.8593 329.414 65.2647C328.495 64.67 334.849 60.5075 336.582 59.5085C338.315 58.5095 342.936 56.3925 345.529 56.5828C348.123 56.7731 364.05 59.1398 369.543 66.2994C375.037 73.4589 382.369 93.1537 380.625 98.0179C380.212 99.2072 378.609 99.8733 378.031 101.526C377.277 103.703 376.699 106.284 375.968 107.746C375.39 108.983 374.553 109.483 374.542 108.995Z" fill="#FFC727"/>
<path d="M362.647 74.9569C364.058 74.1808 365.4 73.2814 366.655 72.2691C367.967 71.2804 369.155 70.1342 370.192 68.8558C370.263 68.7607 370.416 68.8558 370.345 68.951C369.489 70.4082 368.406 71.7173 367.139 72.8281C365.852 73.8874 364.381 74.6942 362.8 75.2067C362.588 75.3137 362.494 75.052 362.647 74.9569Z" fill="#263238"/>
<path d="M374.86 103.322C375.037 102.918 375.32 102.573 375.532 102.133C375.776 101.7 375.974 101.241 376.122 100.765C376.276 99.8316 376.533 98.9181 376.888 98.0418C377.284 97.3826 377.755 96.772 378.291 96.2222C378.928 95.6315 379.344 94.8379 379.47 93.9744C379.47 93.8555 379.658 93.8674 379.658 93.9744C379.576 95.687 378.373 96.8526 377.572 98.2559C377.188 99.1954 376.884 100.166 376.664 101.158C376.395 102.077 375.836 102.883 375.072 103.453C374.978 103.608 374.801 103.477 374.86 103.322Z" fill="#263238"/>
<path d="M373.209 97.1382C373.775 96.5079 374.388 95.9489 374.883 95.2829C375.365 94.6298 375.798 93.9421 376.18 93.2254C376.569 92.5237 376.899 91.7982 377.276 91.0847C377.654 90.3711 378.255 89.4553 378.656 88.599C378.656 88.492 378.868 88.599 378.821 88.7061C378.408 89.5862 378.137 90.5495 377.76 91.4533C377.412 92.2296 377.018 92.9841 376.581 93.713C376.171 94.4171 375.694 95.0784 375.154 95.6872C374.639 96.3217 374.002 96.8437 373.28 97.2214C373.221 97.2452 373.174 97.1739 373.209 97.1382Z" fill="#263238"/>
<path d="M371.441 91.5007C372.666 90.552 373.75 89.4305 374.659 88.1707C375.532 86.9814 376.345 85.6375 377.123 84.353C377.182 84.2579 377.335 84.353 377.3 84.4244C376.763 85.9108 376.046 87.3248 375.166 88.6345C374.726 89.2624 374.216 89.8371 373.645 90.3471C373.005 90.8694 372.304 91.3126 371.559 91.6672C371.441 91.7148 371.347 91.572 371.441 91.5007Z" fill="#263238"/>
<path d="M369.461 86.1012C370.065 85.7251 370.593 85.2368 371.017 84.6621C371.535 84.0437 372.03 83.4728 372.514 82.783C372.997 82.0932 373.457 81.5937 373.917 80.9515C374.42 80.362 374.798 79.6736 375.025 78.9297C375.032 78.9115 375.044 78.8958 375.059 78.8847C375.075 78.8736 375.094 78.8677 375.113 78.8677C375.132 78.8677 375.151 78.8736 375.167 78.8847C375.183 78.8958 375.195 78.9115 375.202 78.9297C375.103 79.7023 374.85 80.4467 374.459 81.118C374.062 81.8746 373.6 82.5948 373.08 83.2706C372.564 83.9342 372.009 84.5656 371.417 85.1616C370.934 85.7432 370.283 86.1588 369.555 86.3509C369.413 86.3628 369.319 86.1725 369.461 86.1012Z" fill="#263238"/>
<path d="M368.176 79.3103C368.718 78.8227 369.26 78.3232 369.755 77.7999C370.25 77.2766 370.746 76.7057 371.205 76.1468C371.665 75.5878 372.207 74.9575 372.655 74.3628C372.669 74.3408 372.692 74.3252 372.717 74.3196C372.742 74.3141 372.769 74.3189 372.791 74.3331C372.813 74.3473 372.828 74.3697 372.834 74.3953C372.839 74.421 372.834 74.4478 372.82 74.4699C372.481 75.1668 372.087 75.8349 371.641 76.4679C371.226 77.0889 370.765 77.6773 370.262 78.228C369.752 78.7805 369.209 79.3008 368.635 79.786C368.095 80.3036 367.458 80.7079 366.761 80.9753C366.735 80.9801 366.709 80.9777 366.684 80.9682C366.66 80.9587 366.639 80.9426 366.623 80.9217C366.607 80.9008 366.597 80.8758 366.594 80.8496C366.592 80.8234 366.596 80.7969 366.608 80.7731C367.082 80.2352 367.607 79.7452 368.176 79.3103Z" fill="#263238"/>
<path d="M358.473 71.5438C359.038 70.8636 359.64 70.2164 360.277 69.6052C360.933 68.9848 361.626 68.4049 362.352 67.8689C363.742 66.7851 365.248 65.8635 366.843 65.1216C366.938 65.1216 367.044 65.1929 366.95 65.2643C364.191 67.4288 361.338 69.4863 358.603 71.6746C358.473 71.746 358.415 71.627 358.473 71.5438Z" fill="#263238"/>
<path d="M355.325 66.538C355.922 65.8845 356.59 65.3019 357.318 64.8016C358.864 63.7977 360.517 62.972 362.245 62.3398C362.267 62.3272 362.293 62.3238 362.318 62.3305C362.342 62.3372 362.363 62.3534 362.375 62.3755C362.388 62.3976 362.391 62.4237 362.384 62.4483C362.378 62.4728 362.362 62.4937 362.34 62.5063C360.843 63.4101 359.322 64.2902 357.872 65.2773C357.153 65.7591 356.461 66.2792 355.797 66.8353C355.137 67.4062 354.618 68.1079 353.982 68.7025C353.982 68.7025 353.84 68.7025 353.864 68.6312C354.211 67.8442 354.708 67.1332 355.325 66.538Z" fill="#263238"/>
<path d="M350.764 64.0753C351.312 63.4305 351.929 62.8483 352.603 62.3389C353.872 61.3612 355.295 60.6054 356.812 60.103C356.918 60.103 356.977 60.2219 356.882 60.2814C355.478 61.0454 354.141 61.9287 352.886 62.9217C352.261 63.4212 351.707 63.9563 351.047 64.4677C350.387 64.9791 349.868 65.657 349.267 66.1209C349.254 66.1319 349.238 66.1375 349.221 66.1364C349.205 66.1353 349.189 66.1275 349.178 66.1149C349.168 66.1023 349.162 66.0858 349.163 66.0691C349.164 66.0524 349.172 66.0368 349.184 66.0257C349.645 65.3238 350.174 64.6703 350.764 64.0753Z" fill="#263238"/>
<path d="M347.522 61.1148C348.135 60.6629 348.701 60.2348 349.397 59.8185C350.006 59.3743 350.683 59.0329 351.401 58.8076C351.507 58.8076 351.554 58.9265 351.472 58.9741C350.293 59.8423 349.114 60.7343 347.935 61.6262C346.91 62.5248 345.982 63.5294 345.165 64.6233C345.165 64.6233 345.035 64.6233 345.059 64.5638C345.513 63.1883 346.373 61.9852 347.522 61.1148Z" fill="#263238"/>
<path d="M343.348 59.9966C344.483 59.0305 345.792 58.2954 347.203 57.832C347.309 57.832 347.368 57.9629 347.274 57.9985C345.981 58.6028 344.788 59.4051 343.737 60.3771C342.678 61.3446 341.725 62.4253 340.896 63.6001C340.896 63.6596 340.743 63.6001 340.778 63.6001C341.348 62.215 342.228 60.9816 343.348 59.9966Z" fill="#263238"/>
<path d="M337.725 62.2681C337.876 61.9769 338.049 61.6985 338.244 61.4356C338.63 60.8937 339.073 60.3953 339.564 59.9489C340.585 59.0667 341.691 58.2898 342.865 57.6298C342.96 57.5704 343.054 57.7369 342.948 57.7963C341.824 58.4623 340.784 59.2608 339.847 60.1749C339.392 60.6302 338.967 61.1149 338.574 61.6259C338.385 61.8756 338.209 62.1373 338.044 62.3989C337.9 62.6761 337.73 62.939 337.537 63.1838C337.523 63.1949 337.507 63.2019 337.489 63.204C337.472 63.2062 337.454 63.2034 337.438 63.196C337.422 63.1886 337.409 63.1768 337.399 63.1621C337.389 63.1473 337.384 63.1302 337.383 63.1125C337.442 62.8114 337.558 62.5247 337.725 62.2681Z" fill="#263238"/>
<path d="M334.331 62.41C334.668 61.9917 335.03 61.5945 335.415 61.2207C335.784 60.8336 336.177 60.472 336.594 60.1385C337.03 59.8055 337.49 59.4725 337.915 59.1157C338.009 59.0324 338.127 59.187 338.021 59.2703C337.578 59.6119 337.164 59.9897 336.783 60.4001L335.675 61.5894L334.567 62.7787C334.219 63.1953 333.849 63.5923 333.458 63.968C333.399 64.0275 333.305 63.968 333.34 63.8729C333.615 63.3494 333.947 62.8587 334.331 62.41Z" fill="#263238"/>
<path d="M379.976 147.576C382.605 147.303 370.793 139.465 367.952 141.761C365.111 144.056 350.835 179.652 355.479 218.28C360.124 256.909 428.888 301.995 431.682 296.215C432.861 293.836 432.047 288.009 430.197 285.844C427.579 282.788 379.328 244.813 373.893 220.861C369.084 199.561 373.516 148.242 379.976 147.576Z" fill="#455A64"/>
<path d="M403.93 167.818C447.443 214.07 486.747 293.42 463.028 297.547C442.527 301.115 378.148 282.264 362.293 275.462C355.361 272.5 373.468 213.618 380.671 217.281C386.908 220.409 395.089 223.846 396.067 223.775C398.154 223.632 389.513 195.339 381.921 171.232C370.804 135.612 387.591 150.455 403.93 167.818Z" fill="#D3766A"/>
<path d="M315.021 195.113C310.765 199.715 313.936 205.388 313.936 205.388C310.936 206.202 308.313 208.049 306.521 210.609C303.574 215.271 309.539 221.967 309.539 221.967C306.602 223.476 304.179 225.837 302.584 228.746C300.226 233.503 305.272 241.115 305.272 241.115C303.335 243.999 302.498 247.492 302.914 250.95C304.34 260.156 317.32 265.733 325.525 269.373C333.73 273.012 360.408 275.545 365.441 276.508L389.019 223.525C389.019 223.525 356.789 196.659 346.579 193.793C337.844 191.39 319.795 189.951 315.021 195.113Z" fill="#D3766A"/>
<path d="M314.679 204.698C324.475 205.054 333.647 208.325 342.972 211.06C343.014 211.073 343.05 211.102 343.071 211.141C343.092 211.18 343.096 211.226 343.084 211.269C343.071 211.311 343.043 211.347 343.004 211.368C342.965 211.389 342.92 211.394 342.878 211.381C333.623 208.551 323.945 207.611 314.585 205.161C314.529 205.144 314.481 205.106 314.451 205.055C314.421 205.005 314.411 204.944 314.423 204.886C314.435 204.828 314.468 204.777 314.515 204.742C314.562 204.707 314.621 204.691 314.679 204.698Z" fill="#263238"/>
<path d="M310.01 221.349C312.231 221.649 314.404 222.245 316.47 223.121C318.71 223.894 320.926 224.715 323.143 225.571C327.575 227.284 331.965 229.107 336.311 231.042C336.499 231.125 336.417 231.446 336.205 231.363C331.784 229.674 327.339 228.033 322.86 226.523C320.62 225.777 318.368 225.04 316.105 224.31C313.93 223.754 311.822 222.956 309.821 221.932C309.777 221.887 309.746 221.83 309.732 221.769C309.717 221.707 309.72 221.643 309.74 221.583C309.759 221.522 309.795 221.469 309.842 221.428C309.89 221.386 309.948 221.359 310.01 221.349Z" fill="#263238"/>
<path d="M305.424 241.174C307.346 241.174 309.385 242.364 311.153 243.077C313.146 243.898 315.161 244.718 317.166 245.515C321.197 247.109 325.217 248.714 329.296 250.165C329.497 250.237 329.402 250.57 329.19 250.486C325.04 249.036 320.879 247.632 316.741 246.134L310.658 243.898C308.949 243.256 306.721 242.649 305.33 241.376C305.317 241.358 305.31 241.336 305.309 241.314C305.307 241.291 305.311 241.269 305.321 241.249C305.33 241.228 305.344 241.211 305.363 241.198C305.381 241.185 305.402 241.177 305.424 241.174Z" fill="#263238"/>
<path d="M381.756 214.546L362.01 280.231C362.01 280.231 452.253 308.774 467.296 297.785C482.338 286.795 450.426 211.061 392.26 155.652C371.866 136.207 375.261 158.732 382.145 181.21C390.115 207.243 393.05 221.337 393.05 221.337L381.756 214.546Z" fill="#E44F9C"/>
<path d="M381.85 214.533C383.913 215.437 408.894 230.137 410.638 231.291C411.534 231.397 412.411 231.629 413.244 231.98C414.246 232.325 415.248 232.658 416.238 233.027C418.148 233.752 420.057 234.466 421.944 235.227C425.67 236.924 429.516 238.339 433.45 239.461C433.662 239.461 433.556 239.83 433.343 239.782C429.284 238.933 425.276 237.845 421.342 236.523C419.362 235.893 417.393 235.215 415.448 234.525L417.523 235.905C425.634 241.328 433.615 246.965 441.678 252.46C446.264 255.588 450.826 258.763 455.459 261.82C455.497 261.843 455.523 261.881 455.533 261.925C455.543 261.968 455.536 262.014 455.512 262.052C455.489 262.09 455.451 262.116 455.408 262.127C455.365 262.137 455.32 262.129 455.282 262.105C439.002 251.402 383.371 217.102 381.449 215.271C381.155 214.95 381.473 214.379 381.85 214.533Z" fill="#263238"/>
<path d="M380.165 195.874C381.638 197.765 383.383 199.442 384.88 201.261C384.963 201.369 385.045 201.464 385.116 201.571C383.018 195.862 381.072 190.106 379.139 184.35C379.137 184.33 379.142 184.309 379.152 184.292C379.162 184.275 379.177 184.261 379.196 184.253C379.214 184.245 379.235 184.244 379.254 184.248C379.273 184.252 379.291 184.263 379.304 184.278C382.393 191.331 385.517 198.371 388.264 205.567C389.655 209.135 394.547 222.038 394.264 222.514C394.099 222.788 393.828 222.907 393.616 222.633C393.616 222.562 389.466 212.845 389.195 212.167C388.33 209.987 387.482 207.807 386.649 205.626L386.542 205.424C386.236 204.996 385.882 204.615 385.564 204.235C384.904 203.378 384.279 202.51 383.631 201.642C382.31 199.87 381.273 197.908 379.941 196.147C379.799 195.945 380.035 195.707 380.165 195.874Z" fill="#263238"/>
<path d="M361.504 280.421C361.581 280.069 361.683 279.723 361.81 279.386C361.94 278.994 362.081 278.601 362.223 278.197C362.375 277.811 362.497 277.413 362.588 277.008C362.671 276.603 362.765 276.187 362.847 275.818C362.847 275.604 363.225 275.699 363.166 275.914C363.071 276.306 362.965 276.687 362.859 277.103C362.765 277.494 362.698 277.891 362.659 278.292C362.659 278.685 362.565 279.077 362.494 279.481C362.494 279.66 362.494 279.85 362.411 280.029C362.329 280.207 362.352 280.385 362.305 280.552C366.573 281.491 370.793 282.93 375.025 284.013C379.257 285.095 383.82 286.391 388.229 287.497C397.129 289.781 406.03 292.1 414.966 294.241C420.07 295.43 425.151 296.762 430.291 297.809C430.503 297.809 430.409 298.177 430.197 298.13C421.167 296.31 412.089 294.788 403.083 292.706C394.076 290.625 385.211 288.354 376.405 285.701C371.418 284.191 366.207 282.895 361.386 280.944C361.352 280.936 361.319 280.922 361.291 280.902C361.262 280.881 361.238 280.855 361.22 280.826C361.201 280.796 361.188 280.763 361.182 280.728C361.177 280.693 361.178 280.658 361.185 280.623C361.193 280.589 361.207 280.556 361.228 280.528C361.248 280.499 361.273 280.474 361.303 280.456C361.332 280.437 361.365 280.424 361.4 280.418C361.434 280.412 361.469 280.413 361.504 280.421Z" fill="#263238"/>
<path d="M374.777 274.688C375.237 272.857 375.732 271.049 376.239 269.229C377.241 265.554 378.267 261.891 379.304 258.216C381.367 250.926 383.619 243.707 385.965 236.512C387.297 232.42 388.488 228.258 389.985 224.238C389.997 224.195 390.026 224.16 390.065 224.138C390.104 224.117 390.149 224.112 390.191 224.125C390.233 224.138 390.269 224.167 390.29 224.206C390.311 224.245 390.316 224.291 390.303 224.333C389.478 228.056 388.382 231.719 387.403 235.394C386.425 239.069 385.482 242.767 384.432 246.442C382.369 253.721 380.165 260.964 377.89 268.183C377.253 270.204 376.711 272.274 375.956 274.272C375.591 275.295 375.296 276.341 374.907 277.364C374.518 278.387 374.058 279.374 373.728 280.409C373.722 280.427 373.709 280.442 373.694 280.454C373.678 280.465 373.659 280.471 373.64 280.471C373.621 280.471 373.602 280.465 373.586 280.454C373.57 280.442 373.558 280.427 373.551 280.409C373.976 278.47 374.306 276.567 374.777 274.688Z" fill="#263238"/>
</g>
<defs>
<clipPath id="clip0_688_144">
<path d="M430 0H0V253C0 280.614 22.3858 303 50 303H380C407.614 303 430 280.614 430 253V0Z" fill="white"/>
</clipPath>
</defs>
</svg>
