<svg width="272" height="267" viewBox="0 0 272 267" fill="none" xmlns="http://www.w3.org/2000/svg">
<path d="M107.643 20.6016H0.000854492V201.374H107.643V20.6016Z" fill="#EBEBEB"/>
<path d="M99.5655 29.6019H8.08459V145.136H99.5655V29.6019Z" fill="white"/>
<path d="M13.0801 219.562H6.84192V201.374H17.9402L13.0801 219.562Z" fill="#EBEBEB"/>
<path d="M17.9402 201.368L16.15 208.076H6.84192V201.368H17.9402Z" fill="#C7C7C7"/>
<path d="M94.5701 219.562H100.808V201.374H89.71L94.5701 219.562Z" fill="#EBEBEB"/>
<path d="M89.71 201.368L91.5064 208.076H100.808V201.368H89.71Z" fill="#C7C7C7"/>
<path d="M99.5654 152.561C92.5931 152.673 85.6208 152.745 78.6485 152.779C71.6844 152.847 64.7203 152.835 57.7315 152.86L58.0268 152.561C58.0268 155.544 58.0268 158.528 58.0268 161.511L58.0145 170.455C57.953 176.422 57.8976 182.389 57.7623 188.356C57.6208 182.389 57.5654 176.422 57.5039 170.455V161.511C57.5039 158.528 57.5039 155.544 57.5039 152.561V152.249H57.7992C64.7633 152.249 71.7274 152.249 78.7162 152.33C85.7049 152.411 92.6013 152.448 99.5654 152.561Z" fill="#C7C7C7"/>
<path d="M57.7809 193.464C64.7532 193.352 71.7255 193.277 78.6978 193.24C85.6619 193.171 92.6261 193.19 99.6148 193.165L99.3195 193.464C99.3195 190.536 99.3195 187.615 99.3195 184.688L99.3564 175.905C99.4118 170.057 99.4671 164.202 99.6025 158.353C99.744 164.202 99.7993 170.057 99.8547 175.905L99.8916 184.688C99.8916 187.615 99.9224 190.536 99.8916 193.464V193.769H99.5963C92.6322 193.738 85.6681 193.769 78.6794 193.688C71.6907 193.607 64.745 193.582 57.7809 193.464Z" fill="#C7C7C7"/>
<path d="M61.7182 177.55H64.3759V167.223H61.7182V177.55Z" fill="#C7C7C7"/>
<path d="M8.08459 152.561C15.0569 152.448 22.0292 152.376 29.0015 152.343C35.9657 152.274 42.9298 152.287 49.9185 152.262H50.2138V152.561C50.2138 155.544 50.2138 158.528 50.2138 161.511V170.455C50.1523 176.422 50.0969 182.389 49.9554 188.356C49.8201 182.389 49.7647 176.422 49.7032 170.455V161.511C49.7032 158.528 49.7032 155.544 49.7032 152.561L49.9985 152.86C43.0344 152.86 36.0702 152.86 29.0815 152.779C22.0928 152.698 15.0487 152.673 8.08459 152.561Z" fill="#C7C7C7"/>
<path d="M49.8693 193.464C42.9052 193.582 35.9411 193.644 28.9524 193.688C21.9636 193.732 15.0241 193.738 8.03541 193.769H7.74011V193.464C7.74011 190.536 7.74011 187.615 7.74011 184.688L7.77703 175.905C7.83239 170.057 7.88776 164.202 8.02926 158.353C8.1646 164.202 8.21997 170.057 8.27534 175.905L8.31225 184.688C8.31225 187.615 8.34301 190.536 8.31225 193.464L8.01695 193.165C14.9811 193.165 21.9452 193.165 28.9339 193.24C35.9226 193.314 42.9052 193.358 49.8693 193.464Z" fill="#C7C7C7"/>
<path d="M45.932 167.216H43.2743V177.543H45.932V167.216Z" fill="#C7C7C7"/>
<path d="M99.5655 26.8115H8.08459V29.6019H99.5655V26.8115Z" fill="#EBEBEB"/>
<path d="M99.5655 66.251H8.08459V69.0414H99.5655V66.251Z" fill="#EBEBEB"/>
<path d="M99.5655 105.69H8.08459V108.481H99.5655V105.69Z" fill="#EBEBEB"/>
<path d="M25.218 66.2447L25.218 34.8401H15.8054L15.8054 66.2447H25.218Z" fill="#C7C7C7"/>
<path d="M25.218 57.3441V53.8934H15.8054V57.3441H25.218Z" fill="#DBDBDB"/>
<path d="M25.218 42.3145V41.0314H15.8054V42.3145H25.218Z" fill="#DBDBDB"/>
<path d="M86.1848 34.8464V66.251H95.5975V34.8464H86.1848Z" fill="#C7C7C7"/>
<path d="M86.1848 43.747V47.1977H95.5975V43.747H86.1848Z" fill="#DBDBDB"/>
<path d="M95.6036 64.3762V63.0931H86.191V64.3762H95.6036Z" fill="#DBDBDB"/>
<path d="M95.5974 58.4776V57.1945H86.1848V58.4776H95.5974Z" fill="#DBDBDB"/>
<path d="M69.236 66.2446V34.8401H62.0934V66.2446H69.236Z" fill="#C7C7C7"/>
<path d="M69.2421 57.3441V53.8934H62.0995V57.3441H69.2421Z" fill="#DBDBDB"/>
<path d="M69.2421 42.3207V41.0376H62.0995V42.3207H69.2421Z" fill="#DBDBDB"/>
<path d="M31.8008 66.2447L31.8008 29.6081H25.2181V66.2447H31.8008Z" fill="#DBDBDB"/>
<path d="M30.4535 47.1416V33.0526H26.5039V47.1416H30.4535Z" fill="#EBEBEB"/>
<path d="M95.6036 31.7944V66.2448H99.5717V31.7944H95.6036Z" fill="#A6A6A6"/>
<path d="M96.4095 34.18V47.4282H98.7904V34.18H96.4095Z" fill="#EBEBEB"/>
<path d="M69.2421 32.7474V66.2448H75.8248V32.7474H69.2421Z" fill="#DBDBDB"/>
<path d="M70.5894 50.2185V63.0992H74.539V50.2185H70.5894Z" fill="#EBEBEB"/>
<path d="M42.9667 66.2509V38.4216H31.7946V66.2509H42.9667Z" fill="#A6A6A6"/>
<path d="M42.9667 63.2986V60.7075H31.7946V63.2986H42.9667Z" fill="#C7C7C7"/>
<path d="M42.9667 59.0009V57.998H31.7946V59.0009H42.9667Z" fill="#C7C7C7"/>
<path d="M15.8054 66.2572L15.8054 40.1033H8.0846L8.0846 66.2572H15.8054Z" fill="#A6A6A6"/>
<path d="M15.8054 63.473V61.0376H8.0846V63.473H15.8054Z" fill="#C7C7C7"/>
<path d="M15.8054 47.9202V45.4849H8.0846V47.9202H15.8054Z" fill="#C7C7C7"/>
<path d="M15.7993 50.5424V49.5957H8.0785V50.5424H15.7993Z" fill="#C7C7C7"/>
<path d="M86.1848 66.2509V29.6081H75.8186V66.2509H86.1848Z" fill="#A6A6A6"/>
<path d="M86.1848 62.3643V58.951H75.8186V62.3643H86.1848Z" fill="#C7C7C7"/>
<path d="M86.1848 40.5767V37.1634H75.8186V40.5767H86.1848Z" fill="#C7C7C7"/>
<path d="M86.1848 44.2453V42.9186H75.8186V44.2453H86.1848Z" fill="#C7C7C7"/>
<path d="M62.0748 65.0252L52.3024 35.1083L48.6401 36.3346L58.4126 66.2514L62.0748 65.0252Z" fill="#A6A6A6"/>
<path d="M61.0456 61.8535L60.1338 59.0623L56.4715 60.2886L57.3833 63.0798L61.0456 61.8535Z" fill="#C7C7C7"/>
<path d="M55.2309 44.0648L54.3191 41.2736L50.6568 42.4999L51.5686 45.2911L55.2309 44.0648Z" fill="#C7C7C7"/>
<path d="M42.9729 31.0034V66.251H48.6451V31.0034H42.9729Z" fill="#C7C7C7"/>
<path d="M42.9729 34.7405V38.0229H48.6451V34.7405H42.9729Z" fill="#EBEBEB"/>
<path d="M42.9667 55.7059V58.9884H48.6389V55.7059H42.9667Z" fill="#EBEBEB"/>
<path d="M42.9729 52.1743V53.4512H48.6451V52.1743H42.9729Z" fill="#EBEBEB"/>
<path d="M78.3901 105.684V74.2796H68.9775V105.684H78.3901Z" fill="#C7C7C7"/>
<path d="M78.3901 96.7835V93.3328H68.9775V96.7835H78.3901Z" fill="#DBDBDB"/>
<path d="M78.3901 81.7539V80.4708H68.9775V81.7539H78.3901Z" fill="#DBDBDB"/>
<path d="M12.0465 74.2796L12.0465 105.684H21.4591V74.2796H12.0465Z" fill="#C7C7C7"/>
<path d="M12.0527 83.1802V86.6309H21.4654V83.1802H12.0527Z" fill="#DBDBDB"/>
<path d="M21.4653 103.816V102.533H12.0527V103.816H21.4653Z" fill="#DBDBDB"/>
<path d="M21.4653 97.9109V96.6278H12.0527V97.9109H21.4653Z" fill="#DBDBDB"/>
<path d="M45.5505 105.678V74.2733H38.408V105.678H45.5505Z" fill="#C7C7C7"/>
<path d="M45.5505 96.7835V93.3328H38.408V96.7835H45.5505Z" fill="#DBDBDB"/>
<path d="M45.5505 81.7539V80.4708H38.408V81.7539H45.5505Z" fill="#DBDBDB"/>
<path d="M68.9714 105.684V69.0476H62.3887V105.684H68.9714Z" fill="#DBDBDB"/>
<path d="M67.6857 86.5749V72.4858H63.7361V86.5749H67.6857Z" fill="#EBEBEB"/>
<path d="M8.08459 78.8638L8.08459 105.678H12.0527L12.0527 78.8638H8.08459Z" fill="#A6A6A6"/>
<path d="M8.85364 80.7138V91.0283H11.2345V80.7138H8.85364Z" fill="#EBEBEB"/>
<path d="M31.8315 72.1805L31.8315 105.678H38.4142V72.1805H31.8315Z" fill="#DBDBDB"/>
<path d="M33.1173 89.6518V102.533H37.0669V89.6518H33.1173Z" fill="#EBEBEB"/>
<path d="M62.3949 105.69V77.861H51.2228V105.69H62.3949Z" fill="#A6A6A6"/>
<path d="M62.3949 102.732V100.141H51.2228V102.732H62.3949Z" fill="#C7C7C7"/>
<path d="M62.401 98.4403V97.4375H51.2289V98.4403H62.401Z" fill="#C7C7C7"/>
<path d="M99.5656 105.684V72.1805H91.8447V105.684H99.5656Z" fill="#A6A6A6"/>
<path d="M99.5717 102.134V99.0133H91.8508V102.134H99.5717Z" fill="#C7C7C7"/>
<path d="M99.5656 82.2086V79.0881H91.8447V82.2086H99.5656Z" fill="#C7C7C7"/>
<path d="M99.5656 85.5658V84.3574H91.8447V85.5658H99.5656Z" fill="#C7C7C7"/>
<path d="M31.8315 105.69L31.8315 69.0476H21.4654V105.69H31.8315Z" fill="#A6A6A6"/>
<path d="M31.8315 101.797V98.3842H21.4653V101.797H31.8315Z" fill="#C7C7C7"/>
<path d="M31.8315 80.0099V76.5966H21.4653V80.0099H31.8315Z" fill="#C7C7C7"/>
<path d="M31.8315 83.6785V82.3518H21.4653V83.6785H31.8315Z" fill="#C7C7C7"/>
<path d="M82.0579 105.69L91.8303 75.7728L88.1681 74.5465L78.3956 104.463L82.0579 105.69Z" fill="#DBDBDB"/>
<path d="M83.0954 102.526L84.0072 99.7352L80.3449 98.5089L79.4332 101.3L83.0954 102.526Z" fill="#C7C7C7"/>
<path d="M88.9039 84.7314L89.8157 81.9402L86.1534 80.7139L85.2417 83.5052L88.9039 84.7314Z" fill="#C7C7C7"/>
<path d="M45.5505 70.4366V105.684H51.2227V70.4366H45.5505Z" fill="#DBDBDB"/>
<path d="M45.5505 74.1799V77.4624H51.2227V74.1799H45.5505Z" fill="#EBEBEB"/>
<path d="M45.5505 95.1454V98.4279H51.2227V95.1454H45.5505Z" fill="#EBEBEB"/>
<path d="M45.5505 91.6075V92.8844H51.2227V91.6075H45.5505Z" fill="#EBEBEB"/>
<path d="M21.8037 145.13L21.8037 113.725H14.6612L14.6612 145.13H21.8037Z" fill="#C7C7C7"/>
<path d="M21.8037 136.235V132.785H14.6612V136.235H21.8037Z" fill="#DBDBDB"/>
<path d="M21.8037 121.206V119.923H14.6612V121.206H21.8037Z" fill="#DBDBDB"/>
<path d="M14.6611 145.136L14.6611 108.5H8.07844L8.07844 145.136H14.6611Z" fill="#DBDBDB"/>
<path d="M13.3754 126.027V111.938H9.42575V126.027H13.3754Z" fill="#EBEBEB"/>
<path d="M21.8037 117.307V145.136H32.9758V117.307H21.8037Z" fill="#A6A6A6"/>
<path d="M21.8037 120.259V122.85H32.9758V120.259H21.8037Z" fill="#C7C7C7"/>
<path d="M21.8037 124.557V125.56H32.9758V124.557H21.8037Z" fill="#C7C7C7"/>
<path d="M93.1489 145.13V113.725H87.3537V145.13H93.1489Z" fill="#C7C7C7"/>
<path d="M93.1489 136.229V132.779H87.3537V136.229H93.1489Z" fill="#DBDBDB"/>
<path d="M93.1489 121.2V119.917H87.3537V121.2H93.1489Z" fill="#DBDBDB"/>
<path d="M32.9819 110.991V145.136H40.4751V110.991H32.9819Z" fill="#C7C7C7"/>
<path d="M32.9758 120.664V124.414H40.469V120.664H32.9758Z" fill="#DBDBDB"/>
<path d="M40.469 143.093V141.698H32.9758V143.093H40.469Z" fill="#DBDBDB"/>
<path d="M40.4751 136.678V135.282H32.9819V136.678H40.4751Z" fill="#DBDBDB"/>
<path d="M58.1438 145.124V109.702H51.0013V145.124H58.1438Z" fill="#C7C7C7"/>
<path d="M58.1438 135.083V131.19H51.0013V135.083H58.1438Z" fill="#DBDBDB"/>
<path d="M58.1438 118.135V116.69H51.0013V118.135H58.1438Z" fill="#DBDBDB"/>
<path d="M44.271 145.124V109.882H40.469V145.124H44.271Z" fill="#DBDBDB"/>
<path d="M43.5266 126.756V113.202H41.2442V126.756H43.5266Z" fill="#EBEBEB"/>
<path d="M74.9943 111.632V145.13H87.3537V111.632H74.9943Z" fill="#DBDBDB"/>
<path d="M77.412 129.097V141.978H84.8252V129.097H77.412Z" fill="#EBEBEB"/>
<path d="M74.9943 145.13V115.201H63.8221V145.13H74.9943Z" fill="#A6A6A6"/>
<path d="M74.9943 141.959V139.169H63.8221V141.959H74.9943Z" fill="#C7C7C7"/>
<path d="M74.9943 137.344V136.26H63.8222V137.344H74.9943Z" fill="#C7C7C7"/>
<path d="M99.5717 145.13V111.626H93.1551V145.13H99.5717Z" fill="#A6A6A6"/>
<path d="M99.5656 141.58V138.459H93.149V141.58H99.5656Z" fill="#C7C7C7"/>
<path d="M99.5717 121.654V118.534H93.1551V121.654H99.5717Z" fill="#C7C7C7"/>
<path d="M99.5656 125.005V123.797H93.149V125.005H99.5656Z" fill="#C7C7C7"/>
<path d="M51.0074 145.13V113.401H44.271V145.13H51.0074Z" fill="#A6A6A6"/>
<path d="M51.0012 141.773V138.814H44.2647V141.773H51.0012Z" fill="#C7C7C7"/>
<path d="M51.0012 122.906V119.948H44.2647V122.906H51.0012Z" fill="#C7C7C7"/>
<path d="M51.0074 126.07V124.924H44.271V126.07H51.0074Z" fill="#C7C7C7"/>
<path d="M58.1438 111.408V145.13H63.816V111.408H58.1438Z" fill="#DBDBDB"/>
<path d="M58.15 114.983V118.129H63.8222V114.983H58.15Z" fill="#EBEBEB"/>
<path d="M58.1438 135.04V138.185H63.816V135.04H58.1438Z" fill="#EBEBEB"/>
<path d="M58.1438 131.664V132.884H63.816V131.664H58.1438Z" fill="#EBEBEB"/>
<path d="M189.564 202.969H268.378L270.912 152.336H187.029L189.564 202.969Z" fill="#EBEBEB"/>
<path d="M262.601 175.513H193.193L192.234 157.936H263.714L262.601 175.513ZM193.778 174.89H262.023L263.062 158.559H192.886L193.778 174.89Z" fill="#DBDBDB"/>
<path d="M261.647 195.731H195.205L194.43 179.867H262.644L261.647 195.731ZM195.759 195.108H261.081L261.986 180.49H195.058L195.759 195.108Z" fill="#DBDBDB"/>
<path d="M235.883 168.63H221.167L220.625 164.389H236.424L235.883 168.63ZM221.733 168.007H235.366L235.747 165.012H221.351L221.733 168.007Z" fill="#DBDBDB"/>
<path d="M235.883 189.92H221.167L220.625 185.678H236.424L235.883 189.92ZM221.733 189.297H235.366L235.747 186.301H221.351L221.733 189.297Z" fill="#DBDBDB"/>
<path d="M200.496 202.969L199.733 208.481L198.189 219.561H195.181V202.969H200.496Z" fill="#EBEBEB"/>
<path d="M200.496 202.969L199.733 208.481H195.181V202.969H200.496Z" fill="#DBDBDB"/>
<path d="M257.452 202.969L258.215 208.481L259.753 219.561H262.761V202.969H257.452Z" fill="#EBEBEB"/>
<path d="M257.452 202.969L258.215 208.481H262.761V202.969H257.452Z" fill="#DBDBDB"/>
<path d="M264.705 128.101H233.686V133.968H264.705V128.101Z" fill="#C7C7C7"/>
<path d="M255.914 128.101H252.505V133.968H255.914V128.101Z" fill="#DBDBDB"/>
<path d="M241.075 128.101H239.808V133.968H241.075V128.101Z" fill="#DBDBDB"/>
<path d="M265.745 121.598H226.476V128.095H265.745V121.598Z" fill="#A6A6A6"/>
<path d="M261.58 121.598H257.919V128.095H261.58V121.598Z" fill="#C7C7C7"/>
<path d="M238.226 121.598H234.566V128.095H238.226V121.598Z" fill="#C7C7C7"/>
<path d="M242.158 121.598H240.737V128.095H242.158V121.598Z" fill="#C7C7C7"/>
<path d="M234.178 144.102H267.486V138.359H234.178V144.102Z" fill="#A6A6A6"/>
<path d="M237.71 144.102H240.816V138.359H237.71V144.102Z" fill="#EBEBEB"/>
<path d="M257.513 144.102H260.62V138.359H257.513V144.102Z" fill="#EBEBEB"/>
<path d="M254.185 144.102H255.391V138.359H254.185V144.102Z" fill="#EBEBEB"/>
<path d="M265.8 144.102H224.594V152.336H265.8V144.102Z" fill="#C7C7C7"/>
<path d="M250.838 144.955H224.594V151.483H250.838V144.955Z" fill="white"/>
<path d="M226.292 146.295C228.342 146.254 230.393 146.222 232.444 146.201L238.596 146.17L244.748 146.201C246.796 146.201 248.839 146.252 250.9 146.295C248.851 146.346 246.809 146.377 244.748 146.396H238.596H232.444C230.389 146.375 228.338 146.341 226.292 146.295Z" fill="#DBDBDB"/>
<path d="M226.292 147.578C228.34 147.534 230.383 147.497 232.444 147.478H238.596H244.748C246.796 147.478 248.839 147.528 250.9 147.578C248.851 147.622 246.809 147.66 244.748 147.672L238.596 147.704L232.444 147.672C230.383 147.66 228.34 147.622 226.292 147.578Z" fill="#DBDBDB"/>
<path d="M226.292 148.855C228.342 148.813 230.393 148.782 232.444 148.761H238.596H244.748C246.796 148.761 248.839 148.811 250.9 148.855C248.851 148.905 246.809 148.937 244.748 148.955L238.596 148.987L232.444 148.955C230.389 148.939 228.338 148.905 226.292 148.855Z" fill="#DBDBDB"/>
<path d="M226.292 150.138C228.34 150.094 230.383 150.057 232.444 150.044H238.596H244.748C246.796 150.044 248.839 150.101 250.9 150.145C248.851 150.188 246.809 150.226 244.748 150.245H238.596L232.444 150.213C230.383 150.22 228.34 150.182 226.292 150.138Z" fill="#DBDBDB"/>
<path d="M262.472 133.968H225.049V138.359H262.472V133.968Z" fill="#EBEBEB"/>
<path d="M240.49 137.905H262.478V134.423H240.49V137.905Z" fill="white"/>
<path d="M261.032 137.189C259.322 137.189 257.605 137.22 255.895 137.226H250.752H245.615C243.899 137.226 242.188 137.226 240.472 137.189C242.188 137.189 243.899 137.157 245.615 137.151H250.752H255.895C257.624 137.157 259.34 137.17 261.032 137.189Z" fill="#DBDBDB"/>
<path d="M261.032 136.504C259.322 136.504 257.605 136.504 255.895 136.541H250.752H245.615C243.899 136.541 242.188 136.541 240.472 136.504C242.188 136.504 243.899 136.472 245.615 136.466H255.895L261.032 136.504Z" fill="#DBDBDB"/>
<path d="M261.032 135.825C259.322 135.825 257.605 135.856 255.895 135.862H250.752H245.615C243.899 135.862 242.188 135.862 240.472 135.825C242.188 135.825 243.899 135.793 245.615 135.787H250.752H255.895C257.624 135.793 259.34 135.806 261.032 135.825Z" fill="#DBDBDB"/>
<path d="M261.032 135.139C259.322 135.139 257.605 135.171 255.895 135.177H250.752H245.615C243.899 135.177 242.188 135.177 240.472 135.139C242.188 135.139 243.899 135.108 245.615 135.102H250.752H255.895C257.624 135.108 259.34 135.121 261.032 135.139Z" fill="#DBDBDB"/>
<path d="M192.584 66.7555H213.028V46.0579H192.584V66.7555Z" fill="#DBDBDB"/>
<path d="M195.753 63.5477H209.859V49.2656H195.753V63.5477Z" fill="white"/>
<path d="M209.853 49.2656V63.5477H195.747L209.853 49.2656Z" fill="#EBEBEB"/>
<path d="M192.584 41.3054H213.028V20.6078L192.584 20.6078V41.3054Z" fill="#DBDBDB"/>
<path d="M195.753 38.0915H209.859V23.8093H195.753V38.0915Z" fill="white"/>
<path d="M209.853 28.0074V38.0915H199.893L209.853 28.0074Z" fill="#EBEBEB"/>
<path d="M160.969 66.9299H187.688V20.6078H160.969V66.9299Z" fill="#DBDBDB"/>
<path d="M164.273 63.5477H184.384V23.9837H164.273V63.5477Z" fill="white"/>
<path d="M184.384 37.6119V63.5477H171.2L184.384 37.6119Z" fill="#EBEBEB"/>
<path d="M217.796 66.9299H263.548V20.6078L217.796 20.6078V66.9299Z" fill="#DBDBDB"/>
<path d="M260.208 23.9838H221.136V63.5478H260.208V23.9838Z" fill="white"/>
<path d="M232.074 63.5477C237.98 57.5309 254.732 40.5019 260.208 35.0145V63.5477H232.074Z" fill="#EBEBEB"/>
<path d="M0.000854492 219.562L33.8863 219.412L67.7656 219.356L135.53 219.256L203.295 219.356L237.174 219.412L271.06 219.562L237.174 219.717L203.295 219.773L135.53 219.873L67.7656 219.773L33.8863 219.717L0.000854492 219.562Z" fill="#263238"/>
<path d="M135.531 266.052C204.935 266.052 261.198 258.96 261.198 250.212C261.198 241.465 204.935 234.373 135.531 234.373C66.1261 234.373 9.86267 241.465 9.86267 250.212C9.86267 258.96 66.1261 266.052 135.531 266.052Z" fill="#EBEBEB"/>
<path d="M103.86 212.019L230.414 212.019V186.737H103.86V212.019Z" fill="#5B75F3"/>
<path d="M206.79 212.019H219.155V186.737H206.79V212.019Z" fill="#37474F"/>
<path d="M197.039 212.019H202.2V186.737H197.039V212.019Z" fill="#37474F"/>
<path d="M115.364 212.019H127.73V186.737H115.364V212.019Z" fill="#37474F"/>
<path d="M83.5617 122.465L51.0632 246.296L69.0015 251.122L101.5 127.29L83.5617 122.465Z" fill="#37474F"/>
<path d="M57.1262 223.178L53.9508 235.278L71.8891 240.103L75.0645 228.004L57.1262 223.178Z" fill="#5B75F3"/>
<path d="M80.6074 133.729L77.432 145.828L95.3703 150.654L98.5457 138.554L80.6074 133.729Z" fill="#5B75F3"/>
<path d="M77.0738 250.586L223.646 250.586V237.948L77.0738 237.948V250.586Z" fill="#5B75F3"/>
<path d="M184.993 250.586H190.967V237.948H184.993V250.586Z" fill="#A6A6A6"/>
<path d="M194.916 250.586H200.89V237.948H194.916V250.586Z" fill="#A6A6A6"/>
<path d="M91.6971 250.586H97.6708V237.948H91.6971V250.586Z" fill="#A6A6A6"/>
<path d="M101.614 250.586H107.588V237.948H101.614V250.586Z" fill="#A6A6A6"/>
<path d="M178.681 167.877H90.8912V186.737H178.681V167.877Z" fill="#455A64"/>
<path d="M228.722 167.877H178.675V186.737H228.722V167.877Z" fill="#455A64"/>
<path d="M178.681 169.832H90.8912V184.781H178.681V169.832Z" fill="white"/>
<path d="M96.5696 172.909C103.411 172.801 110.254 172.729 117.099 172.691L137.622 172.623L158.152 172.691C164.993 172.729 171.834 172.801 178.675 172.909C171.834 173.013 164.993 173.088 158.152 173.134L137.622 173.196L117.074 173.127C110.25 173.09 103.415 173.017 96.5696 172.909Z" fill="#DBDBDB"/>
<path d="M96.5696 175.843C103.411 175.739 110.254 175.664 117.099 175.619L137.622 175.557L158.152 175.619C164.993 175.664 171.834 175.739 178.675 175.843C171.834 175.947 164.993 176.02 158.152 176.061L137.622 176.13L117.074 176.061C110.25 176.024 103.415 175.951 96.5696 175.843Z" fill="#DBDBDB"/>
<path d="M96.5696 178.777C103.411 178.673 110.254 178.598 117.099 178.552L137.622 178.49L158.152 178.552C164.993 178.59 171.834 178.665 178.675 178.777C171.834 178.885 164.993 178.957 158.152 178.995L137.622 179.063L117.074 178.995C110.25 178.957 103.415 178.885 96.5696 178.777Z" fill="#DBDBDB"/>
<path d="M96.5696 181.71C103.411 181.602 110.254 181.528 117.099 181.486L137.622 181.418L158.152 181.486C164.993 181.523 171.834 181.598 178.675 181.71C171.834 181.818 164.993 181.891 158.152 181.928L137.622 181.997L117.074 181.928C110.25 181.891 103.415 181.818 96.5696 181.71Z" fill="#DBDBDB"/>
<path d="M171.292 112.392H99.4426V125.933H171.292V112.392Z" fill="#A6A6A6"/>
<path d="M212.253 112.392H171.292V125.933H212.253V112.392Z" fill="#A6A6A6"/>
<path d="M171.292 113.8H99.4426V124.532H171.292V113.8Z" fill="white"/>
<path d="M104.094 116.005C109.696 115.93 115.297 115.878 120.895 115.849L137.696 115.799L154.497 115.849C160.096 115.874 165.694 115.926 171.292 116.005C165.694 116.08 160.096 116.134 154.497 116.167L137.696 116.211L120.895 116.167C115.297 116.138 109.696 116.084 104.094 116.005Z" fill="#DBDBDB"/>
<path d="M104.094 118.11C109.696 118.035 115.297 117.984 120.895 117.954L137.696 117.905L154.497 117.954C160.096 117.979 165.694 118.031 171.292 118.11C165.694 118.185 160.096 118.239 154.497 118.272L137.696 118.316L120.895 118.272C115.297 118.243 109.696 118.189 104.094 118.11Z" fill="#DBDBDB"/>
<path d="M104.094 120.215C109.696 120.141 115.297 120.089 120.895 120.06L137.696 120.01L154.497 120.06C160.096 120.085 165.694 120.137 171.292 120.215C165.694 120.294 160.096 120.348 154.497 120.377L137.696 120.421L120.895 120.377C115.297 120.348 109.696 120.294 104.094 120.215Z" fill="#DBDBDB"/>
<path d="M104.094 122.352C109.696 122.277 115.297 122.225 120.895 122.196L137.696 122.146L154.497 122.196C160.096 122.221 165.694 122.273 171.292 122.352C165.694 122.435 160.096 122.489 154.497 122.514L137.696 122.557L120.895 122.514C115.297 122.464 109.696 122.41 104.094 122.352Z" fill="#DBDBDB"/>
<path d="M77.4798 146.637L59.9834 213.19L50.0048 251.134L40.3768 248.537L50.3554 210.592L67.8519 144.04L77.4798 146.637Z" fill="#5B75F3"/>
<path opacity="0.1" d="M77.4798 146.637L59.9834 213.19L50.0048 251.134L40.3768 248.537L50.3554 210.592L67.8519 144.04L77.4798 146.637Z" fill="black"/>
<path d="M58.9795 212.906L76.4819 146.355L68.8487 144.297L51.3462 210.848L58.9795 212.906Z" fill="white"/>
<path d="M73.7763 150.25C72.4721 155.449 71.1473 160.639 69.8021 165.821L65.7417 181.393L61.6199 196.964C60.2336 202.146 58.8309 207.324 57.4119 212.498C58.7243 207.295 60.0511 202.105 61.3922 196.927L65.4464 181.355L69.5745 165.784C70.9607 160.602 72.3613 155.424 73.7763 150.25Z" fill="#DBDBDB"/>
<path d="M72.2813 149.845C70.973 155.052 69.6462 160.243 68.3009 165.416L64.2467 180.988L60.1187 196.559C58.7366 201.742 57.3359 206.92 55.9169 212.093C57.2252 206.895 58.552 201.704 59.8972 196.522L63.9514 180.95L68.0795 165.379C69.4657 160.197 70.8663 155.019 72.2813 149.845Z" fill="#DBDBDB"/>
<path d="M70.7863 149.446C69.478 154.649 68.1512 159.84 66.8059 165.018L62.7517 180.589L58.6237 196.161C57.2416 201.343 55.8409 206.519 54.4219 211.689C55.7261 206.486 57.0508 201.295 58.3961 196.117L62.4564 180.546L66.5783 164.974C67.9605 159.813 69.3631 154.637 70.7863 149.446Z" fill="#DBDBDB"/>
<path d="M69.2853 149.041C67.9811 154.24 66.6564 159.431 65.3111 164.613L61.2508 180.184L57.1289 195.756C55.7467 200.938 54.3441 206.114 52.9209 211.284C54.2292 206.085 55.556 200.894 56.9013 195.712L60.9555 180.141L65.0835 164.569C66.4698 159.387 67.8704 154.211 69.2853 149.041Z" fill="#DBDBDB"/>
<path d="M140.003 237.942H213.551V212.019H140.003V237.942Z" fill="#263238"/>
<path d="M88.3443 237.942H140.003V212.019H88.3443V237.942Z" fill="#263238"/>
<path d="M140.003 235.251H213.551V214.709H140.003V235.251Z" fill="white"/>
<path d="M208.789 231.028C203.047 231.132 197.315 231.205 191.594 231.246L174.399 231.315L157.173 231.246C151.431 231.209 145.69 231.136 139.948 231.028C145.69 230.925 151.431 230.85 157.173 230.804L174.399 230.742L191.594 230.804C197.328 230.85 203.059 230.925 208.789 231.028Z" fill="#DBDBDB"/>
<path d="M208.789 226.992C203.047 227.096 197.315 227.169 191.594 227.21L174.399 227.279L157.173 227.21C151.431 227.173 145.69 227.1 139.948 226.992C145.69 226.888 151.431 226.814 157.173 226.768L174.399 226.706L191.594 226.768C197.328 226.81 203.059 226.884 208.789 226.992Z" fill="#DBDBDB"/>
<path d="M208.789 222.969C203.047 223.072 197.315 223.145 191.594 223.187L174.399 223.255L157.173 223.187C151.431 223.149 145.69 223.076 139.948 222.969C145.69 222.861 151.431 222.786 157.173 222.744L174.399 222.676L191.594 222.744C197.328 222.782 203.059 222.856 208.789 222.969Z" fill="#DBDBDB"/>
<path d="M208.789 218.939C203.047 219.047 197.315 219.119 191.594 219.157L174.399 219.225L157.173 219.157C151.431 219.119 145.69 219.047 139.948 218.939C145.69 218.827 151.431 218.752 157.173 218.715L174.399 218.646L191.594 218.715C197.328 218.752 203.059 218.827 208.789 218.939Z" fill="#DBDBDB"/>
<path d="M230.795 150.287H95.8068V167.951H230.795V150.287Z" fill="#C7C7C7"/>
<path d="M160.416 153.893H108.498V164.495H160.416V153.893Z" fill="white"/>
<path d="M221.684 153.893H172.947V155.532H221.684V153.893Z" fill="white"/>
<path d="M221.684 158.303H172.947V159.941H221.684V158.303Z" fill="white"/>
<path d="M221.684 162.707H172.947V164.345H221.684V162.707Z" fill="white"/>
<path d="M204.679 125.933H105.139V150.206H204.679V125.933Z" fill="#5B75F3"/>
<path d="M194.123 125.933H184.845V150.206H194.123V125.933Z" fill="#263238"/>
<path d="M178.761 125.933H175.162V150.206H178.761V125.933Z" fill="#263238"/>
<path d="M29.7645 202.782C33.6711 194.647 40.506 190.474 48.2207 192.785C55.9353 195.096 57.1165 205.965 51.3705 208.711C45.6245 211.458 39.8662 203.436 36.8271 201.791C33.788 200.147 29.7645 202.782 29.7645 202.782Z" fill="#5B75F3"/>
<path d="M25.9809 224.42C25.9809 223.436 26.0425 222.458 26.0732 221.48C26.1409 219.524 26.2086 217.562 26.2824 215.606C26.4116 212.031 26.793 208.518 28.2572 205.217C29.5497 202.226 31.7104 199.704 34.4523 197.986C35.4708 197.365 36.5677 196.888 37.7129 196.566C38.7475 195.502 40.067 194.768 41.5087 194.454C43.2932 194.085 45.1282 194.039 46.9287 194.317C46.9963 194.317 46.9902 194.423 46.9287 194.417C45.2112 194.196 43.4675 194.321 41.7978 194.784C41.0854 194.985 40.3949 195.258 39.7369 195.6C39.3222 195.828 38.9235 196.084 38.5434 196.366C40.0976 196.041 41.7026 196.058 43.2497 196.416C43.8065 196.552 44.3517 196.734 44.88 196.958C45.3021 196.865 45.7342 196.827 46.1658 196.846C46.7287 196.864 47.2878 196.946 47.833 197.089C48.9475 197.407 50.0136 197.878 51.0013 198.49C51.0628 198.521 51.0013 198.609 50.9521 198.577C49.9859 198.042 48.9506 197.646 47.8761 197.4C47.3542 197.278 46.8234 197.199 46.2888 197.164C45.9937 197.148 45.698 197.148 45.4029 197.164C47.5978 198.189 49.3616 199.97 50.3799 202.19C50.3799 202.252 50.3184 202.302 50.2938 202.24C49.6846 200.952 48.7953 199.819 47.6926 198.929C46.5899 198.038 45.3024 197.411 43.9265 197.095C43.7542 197.051 43.5819 197.027 43.4097 196.989C43.4712 197.245 43.4589 197.531 43.4958 197.78C43.545 198.173 43.6127 198.565 43.6865 198.957C43.8453 199.762 44.0508 200.556 44.3017 201.337C44.5634 202.127 44.8758 202.899 45.2368 203.648C45.5835 204.438 46.0212 205.185 46.5411 205.871C46.5841 205.927 46.498 205.996 46.4611 205.933C45.9935 205.198 45.4583 204.52 45.0338 203.76C44.6308 203.031 44.2812 202.273 43.988 201.492C43.6961 200.698 43.4677 199.882 43.3051 199.051C43.219 198.615 43.1513 198.173 43.1021 197.73C43.049 197.466 43.0324 197.196 43.0529 196.927C42.1469 196.785 41.2265 196.764 40.3152 196.865C40.6597 198.808 41.0288 200.826 42.0993 202.514C42.1362 202.57 42.0378 202.62 42.007 202.564C41.5071 201.668 41.0653 200.74 40.6843 199.786C40.3336 198.86 40.1121 197.89 40.0261 196.902C38.436 197.116 36.9011 197.636 35.5043 198.434C32.8705 199.982 30.7685 202.31 29.4815 205.105C28.1236 208.112 27.3668 211.361 27.2544 214.666C26.996 218.82 26.9468 223 26.5346 227.123C26.5346 227.391 26.0855 227.484 26.0363 227.179C25.9299 226.263 25.9113 225.339 25.9809 224.42Z" fill="#263238"/>
<path d="M35.0122 197.338C35.2677 197.021 35.5659 196.742 35.8981 196.51C36.218 196.242 36.5133 195.98 36.8886 195.743C37.5666 195.274 38.3172 194.922 39.1095 194.703C39.171 194.703 39.1956 194.79 39.1095 194.803C38.3113 195.005 37.5646 195.376 36.9194 195.893C36.5933 196.136 36.3042 196.397 35.972 196.665C35.701 196.952 35.4021 197.211 35.0799 197.438C35.043 197.469 34.9692 197.394 35.0122 197.338Z" fill="#263238"/>
<path d="M47.4763 200.284C48.1234 201.043 48.7214 201.844 49.2665 202.682C49.8024 203.525 50.2498 204.423 50.6015 205.36C50.6015 205.36 50.6015 205.404 50.5523 205.36C49.6602 203.589 48.6057 201.906 47.4024 200.334C47.3594 200.303 47.4332 200.209 47.4763 200.284Z" fill="#263238"/>
<path d="M39.0725 199.481C39.1553 199.988 39.3042 200.483 39.5155 200.95C39.7299 201.403 39.9788 201.839 40.2599 202.252C40.2599 202.252 40.2599 202.308 40.2168 202.283C39.5466 201.5 39.1187 200.534 38.9864 199.505C38.9433 199.437 39.0602 199.412 39.0725 199.481Z" fill="#263238"/>
<path d="M26.5285 202.981C26.5285 202.981 20.9917 195.943 10.324 198.434C0.185469 200.832 -4.50854 219.643 5.72231 221.897C15.9532 224.152 14.1691 206.718 17.9034 203.76C20.6718 201.592 24.6152 202.078 26.5285 202.981Z" fill="#5B75F3"/>
<path d="M2.07414 208.724C2.77008 208.106 3.50585 207.536 4.27657 207.017C4.99938 206.514 5.78837 206.115 6.6205 205.834C7.03308 205.191 7.49816 204.585 8.01086 204.021C8.95765 202.992 10.0528 202.115 11.2591 201.418H10.9392C10.3732 201.418 9.80726 201.418 9.24127 201.418C8.10321 201.491 6.98791 201.774 5.94992 202.252C5.8884 202.252 5.84534 202.184 5.90686 202.159C6.95936 201.695 8.06198 201.359 9.19205 201.156C9.74195 201.054 10.3001 201.003 10.8593 201.007C11.1607 201.007 11.4745 201.007 11.7575 201.063H11.9297C12.9083 200.562 13.9404 200.178 15.0057 199.917L14.7104 199.836C14.1805 199.721 13.6443 199.638 13.1048 199.586C12.0409 199.46 10.9652 199.477 9.90569 199.636C9.84417 199.636 9.82571 199.543 9.90569 199.53C10.9771 199.4 12.0572 199.356 13.1355 199.4C14.041 199.428 14.9415 199.547 15.824 199.755C16.4658 199.633 17.1155 199.558 17.768 199.53C21.4592 199.368 25.5503 200.776 27.8389 203.89C30.1275 207.005 30.5827 211.128 30.9887 214.871C31.6097 220.083 31.7457 225.342 31.3948 230.58C31.3948 230.891 30.9395 230.829 30.9334 230.536C30.7919 226.095 30.6381 221.654 30.2197 217.226C30.0229 215.177 29.8076 213.121 29.4692 211.091C29.2282 209.341 28.7327 207.636 27.9989 206.033C27.2086 204.38 25.9491 203.003 24.3815 202.078C22.8108 201.172 21.0598 200.633 19.2568 200.502C17.6457 200.366 16.0236 200.518 14.4644 200.951C14.5105 201.269 14.5105 201.592 14.4644 201.91C14.4263 202.311 14.3479 202.708 14.2306 203.093C14.1115 203.455 13.9613 203.805 13.7815 204.14C13.5846 204.513 13.3385 204.843 13.1171 205.198C13.0801 205.254 12.994 205.198 13.0309 205.136C13.4692 204.502 13.7537 203.772 13.8615 203.006C13.9291 202.642 13.9723 202.274 13.9906 201.903C13.9906 201.629 13.9906 201.343 13.9906 201.069C12.2973 201.595 10.7173 202.441 9.33355 203.56C9.06901 203.772 8.82293 203.996 8.57685 204.221C8.92717 204.553 9.23139 204.933 9.4812 205.348C9.86606 205.887 10.2017 206.46 10.484 207.061C10.9776 208.256 11.3108 209.513 11.4745 210.798C11.4707 210.809 11.4636 210.818 11.4542 210.825C11.4449 210.832 11.4337 210.836 11.4222 210.836C11.4107 210.836 11.3995 210.832 11.3901 210.825C11.3807 210.818 11.3737 210.809 11.3699 210.798C11.1683 209.547 10.7519 208.341 10.1395 207.235C9.8569 206.688 9.54047 206.16 9.19205 205.653C9.01364 205.391 8.82908 205.136 8.63222 204.887C8.52763 204.756 8.41074 204.619 8.31231 204.476C7.05667 205.72 6.03151 207.182 5.2855 208.792C5.78304 209.333 6.19777 209.946 6.51591 210.611C6.91715 211.322 7.26867 212.061 7.56791 212.822C8.08443 214.261 8.50978 215.732 8.84139 217.226C8.84139 217.294 8.75526 217.313 8.74295 217.226C8.41863 215.715 7.91027 214.25 7.22955 212.866C6.90964 212.193 6.57128 211.527 6.22061 210.866C5.84883 210.265 5.51394 209.641 5.21783 208.998C4.50199 210.566 4.08456 212.256 3.98742 213.981C3.98742 214.049 3.87668 214.037 3.88284 213.981C4.0788 211.264 4.90051 208.632 6.28213 206.295C5.63002 206.575 4.97175 206.849 4.34424 207.192C3.54068 207.621 2.7944 208.153 2.12335 208.774C2.09259 208.848 2.03107 208.767 2.07414 208.724Z" fill="#263238"/>
<path d="M9.90571 209.122C10.2256 210.188 10.6317 211.228 10.9208 212.305C11.2145 213.339 11.3717 214.407 11.3884 215.482C11.3884 215.513 11.3453 215.513 11.3391 215.482C11.0517 213.323 10.5382 211.202 9.80728 209.154C9.80526 209.147 9.80453 209.14 9.80514 209.133C9.80575 209.127 9.80767 209.12 9.81082 209.114C9.81396 209.108 9.81825 209.102 9.82345 209.098C9.82865 209.094 9.83465 209.09 9.84111 209.088C9.84758 209.086 9.85437 209.085 9.86112 209.086C9.86786 209.087 9.87442 209.089 9.88042 209.092C9.88642 209.095 9.89174 209.099 9.89608 209.105C9.90042 209.11 9.90369 209.116 9.90571 209.122Z" fill="#263238"/>
<path d="M3.14465 206.475C3.56249 206.064 4.03959 205.72 4.55962 205.454C5.08647 205.209 5.6342 205.013 6.19607 204.868C6.25759 204.868 6.27604 204.955 6.19607 204.968C5.64424 205.113 5.11441 205.333 4.62114 205.622C4.11729 205.889 3.63219 206.191 3.16926 206.525C3.16611 206.529 3.16195 206.533 3.15716 206.535C3.15237 206.537 3.14711 206.538 3.14189 206.537C3.13667 206.537 3.13165 206.535 3.12732 206.532C3.12299 206.529 3.11948 206.525 3.11714 206.52C3.11479 206.516 3.11369 206.51 3.11392 206.505C3.11416 206.5 3.11573 206.495 3.11848 206.49C3.12124 206.486 3.12509 206.482 3.12967 206.479C3.13425 206.477 3.13941 206.475 3.14465 206.475Z" fill="#263238"/>
<path d="M21.2685 193.582C21.2685 193.582 20.2534 180.938 10.9638 176.84C3.21221 173.414 -1.22341 182.234 4.25806 187.634C8.68753 192 15.7993 190.032 21.2685 193.582Z" fill="#5B75F3"/>
<path d="M5.97456 179.287C7.38826 179.864 8.76671 180.525 10.1026 181.268C11.2157 181.916 12.2863 182.636 13.3078 183.423C13.154 183.099 13.0187 182.763 12.8649 182.452C12.6188 181.966 12.3604 181.486 12.0774 181.025C11.5049 180.07 10.8167 179.191 10.0288 178.409C9.9857 178.366 10.0288 178.291 10.1026 178.341C10.8886 179.124 11.6089 179.972 12.2558 180.876C12.5769 181.336 12.8726 181.815 13.1417 182.308C13.4102 182.762 13.6172 183.25 13.7569 183.76C13.7569 183.791 13.8246 183.809 13.8615 183.841C15.4831 185.146 16.9674 186.618 18.291 188.232C18.291 188.107 18.2417 187.983 18.211 187.87C18.0387 187.248 17.848 186.625 17.645 186.033C17.2485 184.735 16.6859 183.496 15.9716 182.346C15.9651 182.334 15.9634 182.32 15.9668 182.308C15.9703 182.295 15.9787 182.284 15.9901 182.277C16.0015 182.271 16.0151 182.269 16.0278 182.272C16.0404 182.276 16.0512 182.284 16.0578 182.296C16.7988 183.442 17.4567 184.641 18.0264 185.884C18.277 186.49 18.4826 187.115 18.6416 187.752C18.7781 188.158 18.881 188.575 18.9492 188.998C19.3491 189.515 19.749 190.038 20.1243 190.58C24.1108 196.323 26.1102 203.274 26.5901 210.225C26.7295 212.298 26.7644 214.377 26.6946 216.453C26.6773 218.541 26.4942 220.624 26.1471 222.682C26.1471 222.813 25.9195 222.769 25.9256 222.645C25.9687 220.814 26.1594 218.995 26.1902 217.17C26.2255 215.356 26.17 213.541 26.0241 211.732C25.733 208.081 25.0544 204.473 24.0001 200.969C22.9117 197.386 21.3138 193.983 19.2568 190.866C18.8631 190.785 18.4755 190.68 18.0879 190.58L16.7037 190.206C15.812 189.971 14.9446 189.65 14.1137 189.247C14.0522 189.216 14.1137 189.122 14.1691 189.154C14.9873 189.607 15.8755 189.917 16.796 190.069C17.522 190.212 18.2787 190.312 19.0046 190.48C18.3357 189.485 17.6149 188.526 16.8452 187.609C15.0757 187.767 13.2925 187.631 11.5668 187.204C10.6483 186.985 9.74593 186.702 8.86603 186.357C7.93091 185.989 7.02041 185.529 6.13452 185.111C6.06684 185.111 6.13452 184.98 6.17758 185.018C7.8391 185.937 9.65337 186.538 11.5299 186.793C13.186 187.063 14.8602 187.202 16.5376 187.21C15.8794 186.444 15.1965 185.703 14.4705 184.999C12.0097 182.645 9.13672 180.49 5.92535 179.362C5.88228 179.362 5.91304 179.263 5.97456 179.287Z" fill="#263238"/>
<path d="M13.5292 179.325C13.9462 179.861 14.3265 180.425 14.6674 181.013C15.0165 181.631 15.2912 182.29 15.4856 182.975C15.4856 182.975 15.4856 183.006 15.4487 182.975C15.1411 182.352 14.8765 181.729 14.5628 181.106C14.2561 180.498 13.8848 179.926 13.4554 179.4C13.4124 179.344 13.4862 179.275 13.5292 179.325Z" fill="#263238"/>
<path d="M28.4849 191.302C28.5403 191.851 29.8876 186.712 37.713 182.153C44.8432 178.011 53.3515 167.241 46.3628 160.434C40.7521 154.946 25.8826 166.918 28.4849 191.302Z" fill="#5B75F3"/>
<path d="M23.0833 220.764C23.1916 215.419 23.6025 210.085 24.3137 204.787C24.9319 199.91 26.043 195.109 27.6297 190.462C28.2449 188.792 28.8601 187.148 29.6045 185.529C29.5667 184.906 29.577 184.281 29.6353 183.66C29.6722 182.85 29.746 182.047 29.8198 181.237C29.8936 180.427 29.9736 179.624 30.0721 178.82C30.1705 178.017 30.3366 177.213 30.3674 176.41C30.3674 176.403 30.3686 176.397 30.3711 176.391C30.3736 176.385 30.3772 176.379 30.3818 176.375C30.3863 176.37 30.3918 176.366 30.3977 176.364C30.4037 176.361 30.4101 176.36 30.4166 176.36C30.423 176.36 30.4294 176.361 30.4354 176.364C30.4414 176.366 30.4468 176.37 30.4514 176.375C30.4559 176.379 30.4596 176.385 30.462 176.391C30.4645 176.397 30.4658 176.403 30.4658 176.41C30.3101 177.255 30.2156 178.111 30.1828 178.97C30.1274 179.748 30.0782 180.533 30.0598 181.312C30.0413 182.09 30.0598 182.875 30.0598 183.66C30.0598 183.94 30.0598 184.239 30.0598 184.544C30.798 182.962 31.5916 181.43 32.4467 179.892C31.9177 176.597 32.6067 173.152 33.2711 169.926C33.2711 169.864 33.3819 169.889 33.3696 169.957C33.0436 171.64 32.8706 173.35 32.8528 175.065C32.8528 176.416 32.8835 177.768 32.8897 179.119C33.0804 178.795 33.265 178.496 33.4557 178.154C34.4769 176.468 35.5638 174.824 36.7163 173.221C36.6258 172.439 36.6528 171.647 36.7962 170.873C36.9228 170.004 37.1119 169.147 37.3622 168.307C37.6145 167.466 37.9036 166.637 38.2358 165.815C38.568 164.993 39.0233 164.183 39.3555 163.324C39.3583 163.317 39.3623 163.312 39.3672 163.307C39.3722 163.303 39.378 163.299 39.3842 163.297C39.3905 163.295 39.3972 163.294 39.4039 163.294C39.4106 163.294 39.4171 163.296 39.4232 163.299C39.4292 163.302 39.4347 163.306 39.4392 163.311C39.4437 163.316 39.4472 163.321 39.4495 163.328C39.4518 163.334 39.4528 163.341 39.4525 163.348C39.4522 163.354 39.4506 163.361 39.4478 163.367C39.0274 164.157 38.6972 164.993 38.4635 165.859C38.2089 166.676 38.0034 167.508 37.8482 168.35C37.6821 169.185 37.5468 170.026 37.4299 170.842C37.3499 171.402 37.3007 171.981 37.2084 172.548C38.8871 170.261 40.7229 168.096 42.7022 166.07C42.7125 166.065 42.7242 166.064 42.7354 166.066C42.7467 166.068 42.7571 166.073 42.7652 166.081C42.7733 166.09 42.7787 166.1 42.7806 166.112C42.7826 166.123 42.781 166.135 42.776 166.145C39.7787 169.55 37.1012 173.231 34.7784 177.139L34.5261 177.581C34.9629 177.307 35.4551 177.089 35.8611 176.858C36.624 176.435 37.3868 176.005 38.1558 175.613C38.9249 175.22 39.6385 174.797 40.3767 174.367C40.7582 174.155 41.1334 173.931 41.521 173.744C41.9827 173.531 42.427 173.281 42.8499 172.997C42.9114 172.953 42.9729 173.046 42.9114 173.078C42.1547 173.501 41.4903 174.124 40.7582 174.597C40.0261 175.071 39.2755 175.525 38.5188 175.955C37.1223 176.746 35.6027 177.313 34.2124 178.129C33.2588 179.817 32.3668 181.548 31.5732 183.311C32.4037 182.769 33.2588 182.259 34.1201 181.767C34.6799 181.455 35.2336 181.144 35.7996 180.838C36.3619 180.58 36.8925 180.256 37.3807 179.873C37.4299 179.829 37.4976 179.904 37.4484 179.948C36.5369 180.783 35.5239 181.496 34.4339 182.072C33.4249 182.695 32.4098 183.249 31.3578 183.766C30.5212 185.634 29.7583 187.503 29.0877 189.453C25.7841 198.926 24.566 208.979 23.9877 218.97C23.8154 221.947 23.7293 224.924 23.6924 227.902C23.6555 230.879 23.8093 233.856 23.8031 236.833C23.8031 236.921 23.6616 236.939 23.6493 236.833C23.2925 234.193 23.231 231.508 23.1202 228.848C23.0095 226.189 23.028 223.461 23.0833 220.764Z" fill="#263238"/>
<path d="M37.35 177.874C38.7815 177.228 40.1743 176.498 41.5211 175.687C42.8819 174.907 44.2022 174.057 45.4768 173.14C45.4768 173.14 45.5261 173.14 45.4768 173.177C44.2732 174.163 43.0027 175.062 41.6749 175.868C40.2843 176.657 38.846 177.356 37.3685 177.961C37.3377 177.986 37.2885 177.899 37.35 177.874Z" fill="#263238"/>
<path d="M35.0737 167.16C35.1906 166.699 35.332 166.245 35.4859 165.796C35.4859 165.796 35.4859 165.765 35.4859 165.747C35.5843 165.485 35.6889 165.236 35.7935 164.98L35.8304 164.887L35.8857 164.744L35.8119 165.005C35.8004 165.056 35.786 165.106 35.7688 165.155C35.2622 166.925 34.8838 168.729 34.6369 170.555C34.6369 170.611 34.5384 170.617 34.5446 170.555C34.6134 169.409 34.7906 168.272 35.0737 167.16Z" fill="#263238"/>
<path d="M14.7904 222.676L15.3502 229.397L17.0667 249.895H35.4367L37.1469 229.397L37.7068 222.676H14.7904Z" fill="#455A64"/>
<path d="M14.7904 222.676L15.3502 229.397H37.1469L37.7068 222.676H14.7904Z" fill="#263238"/>
<path d="M12.9879 226.419H39.5094V219.973H12.9879V226.419Z" fill="#455A64"/>
<path d="M223.917 111.919C222.625 112.392 184.427 113.165 182.987 112.268C182.815 112.174 182.194 99.3809 182.194 99.3809C182.243 99.2003 181.578 97.967 180.631 96.2666C177.906 91.4519 172.578 82.8315 172.578 82.8315L195.254 75.8929L204.569 94.778L206.943 99.5989C206.943 99.5989 212.148 101.661 216.694 103.716C218.679 104.549 220.615 105.5 222.49 106.562C223.966 107.702 225.209 111.458 223.917 111.919Z" fill="#D3766A"/>
<path d="M223.917 111.919C222.625 112.392 184.427 113.165 182.987 112.268C182.815 112.174 182.194 99.3809 182.194 99.3809C182.243 99.2003 181.579 97.967 180.631 96.2666L204.569 94.778L206.943 99.5989C206.943 99.5989 212.148 101.661 216.694 103.716C218.68 104.549 220.615 105.5 222.49 106.562C223.966 107.702 225.209 111.458 223.917 111.919Z" fill="white"/>
<path d="M224.077 112.062C222.748 112.542 184.494 113.202 183.018 112.299C182.458 111.956 181.788 105.996 182.194 99.3809L206.857 98.9823C206.857 98.9823 221.142 105.373 222.656 106.544C224.169 107.715 225.406 111.589 224.077 112.062Z" fill="#5B75F3"/>
<path opacity="0.1" d="M193.027 112.735C187.583 112.735 183.486 112.579 183.018 112.299C182.458 111.956 181.788 105.996 182.194 99.3809H182.809L193.027 112.735Z" fill="black"/>
<path d="M223.505 110.518C217.094 110.468 191.213 110.891 184.87 111.334C184.821 111.334 184.821 111.377 184.87 111.377C191.225 111.564 217.1 110.935 223.511 110.623C223.64 110.623 223.64 110.518 223.505 110.518Z" fill="#263238"/>
<path d="M220.17 105.198C219.457 105.19 218.75 105.333 218.094 105.617C217.438 105.901 216.849 106.321 216.362 106.849C215.476 107.789 214.983 109.038 214.984 110.337C214.984 110.374 215.058 110.374 215.064 110.337C215.258 109.047 215.861 107.856 216.782 106.944C217.703 106.031 218.892 105.447 220.17 105.279C220.22 105.273 220.22 105.198 220.17 105.198Z" fill="#263238"/>
<path d="M208.881 99.5989C206.316 99.5989 203.344 100.577 201.794 102.713C201.733 102.794 201.856 102.881 201.929 102.838C204.154 101.619 206.501 100.644 208.931 99.929C208.974 99.9224 209.013 99.8987 209.039 99.8631C209.065 99.8274 209.075 99.7828 209.069 99.7391C209.062 99.6953 209.039 99.6559 209.004 99.6296C208.969 99.6034 208.925 99.5923 208.881 99.5989Z" fill="#263238"/>
<path d="M210.875 100.346C208.309 100.346 205.338 101.324 203.787 103.461C203.732 103.542 203.849 103.629 203.923 103.585C206.146 102.355 208.493 101.37 210.924 100.645C210.952 100.629 210.974 100.604 210.988 100.574C211.002 100.544 211.007 100.511 211.001 100.479C210.996 100.446 210.981 100.416 210.958 100.392C210.936 100.369 210.906 100.353 210.875 100.346Z" fill="#263238"/>
<path d="M212.868 101.094C210.302 101.094 207.331 102.072 205.787 104.208C205.725 104.289 205.842 104.376 205.916 104.333C208.141 103.102 210.49 102.116 212.923 101.393C212.951 101.376 212.974 101.35 212.987 101.32C213.001 101.29 213.005 101.256 212.999 101.224C212.993 101.191 212.977 101.161 212.953 101.138C212.93 101.115 212.9 101.099 212.868 101.094Z" fill="#263238"/>
<path d="M214.892 101.841C212.32 101.841 209.355 102.819 207.805 104.955C207.743 105.036 207.86 105.124 207.934 105.08C210.144 103.859 212.477 102.88 214.892 102.159C214.928 102.152 214.961 102.132 214.984 102.103C215.008 102.074 215.021 102.037 215.021 102C215.021 101.963 215.008 101.926 214.984 101.897C214.961 101.868 214.928 101.848 214.892 101.841Z" fill="#263238"/>
<path d="M186.389 105.149C183.51 105.205 183.596 109.733 186.482 109.677C189.367 109.621 189.275 105.086 186.389 105.149Z" fill="#263238"/>
<path d="M211.539 92.6167C210.222 91.5516 208.598 92.6167 207.817 93.7876C206.515 95.7835 205.751 98.0898 205.602 100.477C205.602 100.527 205.639 100.552 205.682 100.546C205.692 100.595 205.713 100.641 205.744 100.68C205.775 100.719 205.815 100.75 205.86 100.77C205.905 100.79 205.955 100.799 206.004 100.796C206.053 100.792 206.101 100.777 206.144 100.751C207.952 99.437 210.044 98.2598 211.397 96.4286C212.185 95.3572 212.782 93.6257 211.539 92.6167ZM208.463 98.2224C207.589 98.8951 206.691 99.5117 205.842 100.209C206.239 98.8953 206.701 97.6023 207.226 96.3351C207.491 95.7269 207.793 95.1361 208.131 94.5662C208.678 93.7004 211.157 91.4519 211.459 94.3046C211.65 95.8306 209.521 97.4002 208.481 98.1913L208.463 98.2224Z" fill="#263238"/>
<path d="M199.241 101.548C201.48 101.86 203.775 101.175 205.965 100.789C206.012 100.776 206.056 100.752 206.092 100.719C206.128 100.686 206.157 100.645 206.175 100.599C206.193 100.553 206.2 100.503 206.195 100.454C206.191 100.405 206.175 100.357 206.15 100.315C206.158 100.308 206.164 100.3 206.168 100.29C206.173 100.28 206.175 100.27 206.175 100.259C206.175 100.249 206.173 100.238 206.168 100.228C206.164 100.219 206.158 100.21 206.15 100.203C204.367 98.6287 202.207 97.5549 199.887 97.0888C198.527 96.8521 196.626 97.2508 196.454 98.9574C196.282 100.664 197.931 101.368 199.241 101.548ZM197.666 100.097C195.888 97.8985 199.192 97.6618 200.182 97.8798C200.823 98.0277 201.452 98.2234 202.065 98.4653C203.323 98.9749 204.555 99.5487 205.756 100.184C204.667 100.309 203.603 100.521 202.52 100.683C201.24 100.876 198.644 101.312 197.666 100.097Z" fill="#263238"/>
<path d="M178.902 96.005L205.805 91.8755C205.805 91.8755 192.886 65.7839 184.888 51.6263C180.44 43.7533 168.278 43.3672 162.341 52.8035C154.417 65.4039 148.277 77.2071 144.758 83.7347L138.656 84.2641L139.972 94.3544L160.274 98.9511C168.044 99.8979 173.495 85.8711 173.624 86.1327C174.577 87.9888 178.902 96.005 178.902 96.005Z" fill="#37474F"/>
<path d="M173.741 86.2261C172.972 84.6378 172.375 82.9561 171.698 81.3305L169.723 76.6154C168.407 73.4326 167.041 70.2623 165.762 67.067C165.042 65.2731 164.384 63.4544 163.713 61.6419C163.713 61.5983 163.627 61.6419 163.639 61.6419C164.162 63.3547 164.703 65.0676 165.269 66.7618C165.116 66.469 164.968 66.1763 164.808 65.8898C164.377 65.1112 163.934 64.3389 163.485 63.5665H163.442C163.854 64.3451 164.267 65.1174 164.673 65.8835C164.882 66.2697 165.116 66.6434 165.343 67.0234C166.91 71.791 168.773 76.4531 170.923 80.9817C171.778 82.7568 172.769 84.4572 173.636 86.2324C173.673 86.3196 173.765 86.2697 173.741 86.2261Z" fill="#263238"/>
<path d="M179.505 91.1592C178.207 89.1349 175.119 83.006 174.012 80.882C171.778 76.5968 169.705 72.2181 167.792 67.802C166.697 65.3106 165.675 62.7693 164.66 60.228C166.206 64.7999 167.978 69.2902 169.97 73.6818C171.938 78.0854 178.306 89.9446 179.45 91.2277C179.468 91.2589 179.542 91.2091 179.505 91.1592Z" fill="#263238"/>
<path d="M162.809 63.5977C160.489 67.7895 158.121 71.9502 155.795 76.1358C154.62 78.2473 153.439 80.3651 152.276 82.4828C151.729 83.4856 151.2 84.4946 150.628 85.4787C150.142 86.4113 149.406 87.1864 148.505 87.7148C147.427 88.2328 146.296 88.6317 145.134 88.9045C143.823 89.2906 142.525 89.7079 141.209 90.0754C141.147 90.0754 141.178 90.1813 141.209 90.1689C142.378 89.8512 143.559 89.546 144.74 89.2844C145.823 89.0509 146.893 88.7578 147.945 88.4062C148.878 88.095 149.703 87.5175 150.32 86.7431C150.953 85.856 151.511 84.9163 151.987 83.934C154.333 79.6488 156.64 75.3324 158.908 70.9848C160.212 68.5245 161.498 66.058 162.809 63.6101C162.833 63.5977 162.815 63.5852 162.809 63.5977Z" fill="#263238"/>
<path d="M178.293 92.1806C179.905 91.8817 181.554 91.7446 183.178 91.5578L188.069 90.9349C191.317 90.5051 202.385 88.7175 203.221 88.4435C203.232 88.4396 203.242 88.4325 203.248 88.423C203.255 88.4135 203.259 88.4022 203.259 88.3905C203.259 88.3789 203.255 88.3675 203.248 88.358C203.242 88.3486 203.232 88.3414 203.221 88.3376C202.428 88.3376 195.181 89.2906 193.557 89.5335C190.308 90.0193 187.078 90.5986 183.836 91.1529C182.914 91.3086 181.991 91.4893 181.068 91.6574C180.145 91.8256 179.222 92.0249 178.299 92.1433C178.297 92.1338 178.291 92.1255 178.283 92.1198C178.275 92.1142 178.265 92.1114 178.256 92.112C178.246 92.1125 178.237 92.1165 178.229 92.1231C178.222 92.1297 178.217 92.1386 178.216 92.1483C178.214 92.1581 178.216 92.1681 178.221 92.1767C178.225 92.1853 178.233 92.1921 178.242 92.1958C178.251 92.1996 178.261 92.2001 178.27 92.1974C178.28 92.1946 178.288 92.1887 178.293 92.1806Z" fill="#263238"/>
<path d="M194.424 120.483C193.993 119.169 170.935 88.3189 169.36 87.7272C169.176 87.6462 158.871 95.077 158.871 95.077C158.447 95.65 138.853 91.4581 138.853 91.4581L138.656 115.388L174.337 114.622C174.337 114.622 179.155 117.487 183.566 119.829C185.441 120.896 187.378 121.847 189.367 122.676C191.182 123.118 194.861 121.773 194.424 120.483Z" fill="#D3766A"/>
<path d="M189.398 122.651C187.406 121.827 185.469 120.877 183.596 119.804C179.192 117.469 174.368 114.591 174.368 114.591L166.426 114.766L153.987 94.4479C156.712 94.9399 158.748 95.2327 158.908 95.0707C158.908 95.0707 169.213 87.6462 169.397 87.7272C170.972 88.3189 194.006 119.163 194.461 120.483C194.916 121.804 191.182 123.118 189.398 122.651Z" fill="white"/>
<path d="M194.633 120.483C194.178 119.132 171.015 88.3065 169.41 87.6899C168.795 87.4594 163.756 90.6111 158.884 95.0334L173.839 114.89C173.839 114.89 187.638 122.29 189.484 122.769C191.329 123.249 195.088 121.854 194.633 120.483Z" fill="#5B75F3"/>
<path d="M193.083 120.994C189.072 115.924 173.396 95.0894 169.797 89.7702C169.797 89.7266 169.797 89.7017 169.834 89.7702C173.913 94.7095 189.441 115.669 193.169 120.957C193.243 121.044 193.169 121.106 193.083 120.994Z" fill="#263238"/>
<path d="M186.888 121.648C186.44 121.085 186.113 120.434 185.927 119.736C185.742 119.038 185.702 118.308 185.811 117.593C185.989 116.309 186.65 115.144 187.657 114.342C187.688 114.342 187.731 114.373 187.7 114.404C186.822 115.359 186.273 116.576 186.136 117.873C185.998 119.17 186.279 120.477 186.937 121.598C186.94 121.605 186.941 121.613 186.94 121.621C186.939 121.628 186.935 121.635 186.93 121.641C186.924 121.646 186.917 121.65 186.91 121.651C186.902 121.653 186.895 121.652 186.888 121.648Z" fill="#263238"/>
<path d="M175.556 116.123C173.975 114.074 172.892 111.14 173.599 108.549C173.599 108.45 173.765 108.493 173.784 108.549C174.204 111.079 174.891 113.555 175.833 115.936C175.857 115.974 175.866 116.019 175.857 116.063C175.849 116.107 175.823 116.145 175.786 116.17C175.75 116.195 175.705 116.204 175.661 116.195C175.618 116.186 175.58 116.161 175.556 116.123Z" fill="#263238"/>
<path d="M177.364 117.257C175.783 115.214 174.701 112.274 175.408 109.683C175.408 109.583 175.574 109.627 175.586 109.714C176.012 112.243 176.7 114.719 177.641 117.101C177.655 117.138 177.655 117.178 177.642 117.215C177.629 117.251 177.603 117.282 177.57 117.301C177.536 117.32 177.497 117.326 177.459 117.318C177.421 117.31 177.388 117.288 177.364 117.257Z" fill="#263238"/>
<path d="M179.21 118.378C177.629 116.335 176.546 113.395 177.254 110.81C177.254 110.711 177.42 110.748 177.432 110.81C177.857 113.339 178.546 115.816 179.487 118.197C179.51 118.235 179.519 118.28 179.509 118.323C179.5 118.366 179.474 118.404 179.438 118.428C179.401 118.452 179.356 118.46 179.314 118.451C179.271 118.441 179.234 118.415 179.21 118.378Z" fill="#263238"/>
<path d="M181 119.506C179.419 117.456 178.336 114.523 179.044 111.932C179.044 111.832 179.21 111.876 179.222 111.932C179.647 114.461 180.336 116.937 181.277 119.319C181.302 119.356 181.31 119.401 181.302 119.445C181.293 119.489 181.268 119.527 181.231 119.552C181.194 119.577 181.149 119.586 181.106 119.577C181.063 119.569 181.025 119.543 181 119.506Z" fill="#263238"/>
<path d="M165.94 94.8153C164.205 92.4921 167.786 89.7577 169.508 92.0872C171.231 94.4167 167.681 97.1448 165.94 94.8153Z" fill="#263238"/>
<path d="M174.657 120.097C175.242 117.886 174.854 115.494 174.756 113.246C174.749 113.194 174.731 113.144 174.701 113.101C174.671 113.059 174.631 113.024 174.585 113C174.538 112.977 174.487 112.966 174.435 112.967C174.384 112.969 174.333 112.983 174.288 113.009C174.283 113 174.275 112.993 174.266 112.987C174.257 112.982 174.246 112.98 174.236 112.98C174.225 112.98 174.215 112.982 174.206 112.987C174.197 112.993 174.189 113 174.184 113.009C172.42 114.602 171.104 116.64 170.369 118.914C169.963 120.24 170.117 122.209 171.76 122.595C173.402 122.981 174.288 121.387 174.657 120.097ZM173.058 121.499C170.683 123 170.862 119.63 171.212 118.69C171.445 118.067 171.716 117.459 172.024 116.871C172.683 115.67 173.402 114.503 174.178 113.377C174.178 114.479 174.233 115.581 174.258 116.684C174.245 117.992 174.344 120.664 173.058 121.499Z" fill="#263238"/>
<path d="M167.386 106.643C166.155 107.833 167.041 109.596 168.069 110.524C169.856 112.086 172.018 113.145 174.338 113.595C174.348 113.597 174.359 113.596 174.369 113.593C174.379 113.59 174.388 113.585 174.396 113.578C174.404 113.57 174.41 113.561 174.414 113.551C174.417 113.541 174.419 113.53 174.418 113.52C174.467 113.515 174.514 113.499 174.556 113.472C174.598 113.445 174.633 113.408 174.658 113.365C174.683 113.322 174.698 113.274 174.701 113.224C174.704 113.174 174.696 113.124 174.676 113.078C173.618 111.097 172.726 108.848 171.102 107.26C170.154 106.332 168.53 105.535 167.386 106.643ZM172.467 110.412C173.009 111.371 173.501 112.349 174.079 113.289C172.849 112.667 171.618 112.143 170.456 111.421C169.892 111.078 169.351 110.697 168.838 110.281C168.056 109.627 166.198 106.855 169.004 106.905C170.548 106.936 171.828 109.272 172.443 110.412H172.467Z" fill="#263238"/>
<path d="M149.096 85.9023C149.096 85.9023 109.987 78.9512 98.8642 81.2433C83.3488 84.4261 80.4942 103.006 92.0047 109.895C106.616 118.69 165.306 116.989 165.306 116.989L151.28 92.9281C151.28 92.9281 129.704 88.3252 110.141 88.9916L149.268 95.0458L149.096 85.9023Z" fill="#37474F"/>
<path d="M152.215 94.4791C152.199 94.4392 152.188 94.3973 152.184 94.3545C152.184 94.3233 152.184 94.286 152.184 94.2548C152.184 94.2237 152.141 94.0991 152.122 94.0181C152.075 93.8596 152.02 93.7036 151.956 93.551C151.899 93.394 151.833 93.2402 151.759 93.0901C151.685 92.9419 151.599 92.8002 151.501 92.6665H151.464H151.427H151.39C149.022 92.2181 132.897 89.8886 130.504 89.6083C128.111 89.328 125.662 89.1038 123.239 88.8982C118.401 88.4727 113.545 88.296 108.689 88.3688L107.323 88.4062C107.231 88.4062 107.126 88.3564 107.028 88.3314C106.794 88.2754 106.56 88.2193 106.327 88.1757C105.89 88.0885 105.447 88.0262 105.01 87.9577C104.087 87.8145 103.164 87.7148 102.254 87.5404C102.243 87.5404 102.232 87.545 102.223 87.5532C102.215 87.5614 102.211 87.5724 102.211 87.584C102.211 87.5956 102.215 87.6067 102.223 87.6148C102.232 87.623 102.243 87.6276 102.254 87.6276C103.171 87.8331 104.1 88.101 104.992 88.3065L105.785 88.4747C104.007 88.5744 102.235 88.7114 100.458 88.8733C100.402 88.8733 100.402 88.9668 100.458 88.9605C102.875 88.8173 105.305 88.7986 107.729 88.8422C110.153 88.8858 112.534 88.9356 114.933 89.0789C119.787 89.3592 124.635 89.8014 129.471 90.3246C132.184 90.6111 148.622 93.0402 151.347 93.1524C151.347 93.2146 151.39 93.2769 151.421 93.3392C151.452 93.4015 151.575 93.6382 151.655 93.7815C151.735 93.9247 151.809 94.0617 151.895 94.1988L152.03 94.3981L152.098 94.4977C152.127 94.5293 152.152 94.565 152.172 94.6036C152.141 94.5725 152.245 94.5351 152.215 94.4791Z" fill="#263238"/>
<path d="M160.243 115.501C159.376 114.099 158.638 112.598 157.844 111.141L155.445 106.78C153.851 103.878 148.124 94.1302 147.558 93.4451C147.521 93.4015 147.447 93.4451 147.465 93.5011C147.736 94.261 151.31 100.714 152.135 102.153C153.777 105.03 155.506 107.852 157.21 110.698C157.702 111.508 158.207 112.305 158.699 113.115C159.191 113.925 159.714 114.716 160.169 115.544C160.194 115.625 160.274 115.575 160.243 115.501Z" fill="#263238"/>
<path d="M147.398 95.9054C145.964 95.5566 144.5 95.3323 143.048 95.0521L138.699 94.2237C135.799 93.6797 132.893 93.1586 129.981 92.6603C124.174 91.6699 118.348 90.854 112.485 90.281C109.181 89.9633 105.865 89.7515 102.549 89.5024C102.482 89.5024 102.482 89.6145 102.549 89.6145C108.455 89.8823 114.349 90.692 120.193 91.5454C126.038 92.3987 131.753 93.3081 137.524 94.2922L142.402 95.1393C144.057 95.432 145.706 95.7621 147.373 95.9988C147.435 96.0113 147.459 95.9178 147.398 95.9054Z" fill="#263238"/>
<path d="M142.538 48.7798C143.67 55.924 149.674 78.1103 156.072 80.4772C160.249 82.0281 182.058 80.7512 185.602 77.0016C187.158 75.3635 185.276 61.399 182.883 61.5734C180.49 61.7478 163.522 64.6503 161.88 63.9091C160.237 63.1679 152.485 48.6179 148.284 43.1616C141.812 34.7593 141.682 43.1616 142.538 48.7798Z" fill="#D3766A"/>
<path d="M145.078 62.1339L157.063 55.0458C157.063 55.0458 152.141 47.1915 148.204 42.545C144.266 37.8985 140.876 36.8085 141.867 46.3631C142.379 51.721 143.455 57.0081 145.078 62.1339Z" fill="#263238"/>
<path d="M152.024 85.6033C151.378 86.1389 115.167 82.3831 115.013 82.1277C114.595 81.4364 122.137 58.8266 127.016 50.4429C133.267 39.6923 136.109 39.0134 137.813 38.5463C139.991 37.9234 143.559 38.4217 145.195 39.6176C146.106 40.2778 148.554 45.7029 149.385 49.9882C151.058 58.5774 152.584 85.1112 152.024 85.6033Z" fill="#5B75F3"/>
<path d="M144.297 44.7188C142.23 45.2233 138.668 42.0405 137.259 39.4556C137.161 39.275 137.425 37.4002 137.634 35.0956C137.757 33.7066 137.862 32.1495 137.856 30.7356C137.856 30.4429 146.684 32.8658 146.684 32.8658C146.188 34.6476 145.909 36.4841 145.854 38.3345C145.858 38.531 145.878 38.7269 145.915 38.92C145.919 38.951 145.919 38.9824 145.915 39.0134C146.112 40.1345 146.29 44.2267 144.297 44.7188Z" fill="#D3766A"/>
<path d="M138.397 30.7917C138.816 33.1959 140.317 39.001 145.023 39.0882C145.325 39.0949 145.628 39.0782 145.927 39.0383C145.932 39.0053 145.932 38.9718 145.927 38.9387C145.888 38.7459 145.866 38.55 145.86 38.3532C145.916 36.5024 146.197 34.6656 146.696 32.8845C146.696 32.8845 140.311 31.1218 138.397 30.7917Z" fill="#263238"/>
<path d="M138.323 18.9573C136.773 21.8723 136.619 31.1654 138.403 33.607C140.987 37.1511 146.112 38.4777 149.305 35.1205C152.381 31.8754 152.381 19.7546 150.314 17.4438C147.256 14.0243 140.612 14.6347 138.323 18.9573Z" fill="#D3766A"/>
<path d="M145.294 27.2476C145.294 27.2476 145.245 27.2476 145.245 27.3037C145.245 27.9265 145.152 28.6491 144.592 28.8421V28.8795C145.281 28.7985 145.374 27.8393 145.294 27.2476Z" fill="#263238"/>
<path d="M144.758 26.5811C143.768 26.4815 143.645 28.4996 144.568 28.593C145.491 28.6864 145.589 26.6683 144.758 26.5811Z" fill="#263238"/>
<path d="M148.745 27.478C148.745 27.478 148.794 27.5154 148.794 27.5403C148.733 28.1632 148.794 28.8857 149.317 29.1286V29.166C148.634 29.0227 148.597 28.0635 148.745 27.478Z" fill="#263238"/>
<path d="M149.336 26.8615C150.338 26.8615 150.289 28.8671 149.366 28.8795C148.444 28.892 148.505 26.8739 149.336 26.8615Z" fill="#263238"/>
<path d="M143.934 24.9306C144.206 24.92 144.478 24.8909 144.746 24.8434C145.038 24.8561 145.326 24.7706 145.564 24.6004C145.629 24.5328 145.67 24.4452 145.68 24.3516C145.69 24.258 145.669 24.1636 145.62 24.0835C145.5 23.9379 145.344 23.8276 145.167 23.764C144.991 23.7005 144.801 23.686 144.617 23.7222C144.237 23.739 143.875 23.8963 143.602 24.1644C143.544 24.2304 143.507 24.3116 143.493 24.3985C143.48 24.4854 143.491 24.5745 143.526 24.655C143.561 24.7356 143.618 24.8043 143.69 24.8532C143.763 24.902 143.847 24.9288 143.934 24.9306Z" fill="#263238"/>
<path d="M150.338 25.4475C150.075 25.3753 149.816 25.288 149.563 25.1859C149.276 25.1376 149.014 24.9927 148.819 24.7748C148.768 24.6941 148.746 24.5985 148.757 24.5035C148.767 24.4085 148.808 24.3197 148.874 24.2516C149.022 24.1363 149.197 24.0633 149.383 24.0403C149.568 24.0173 149.755 24.0451 149.926 24.1208C150.291 24.2106 150.61 24.4321 150.824 24.7437C150.875 24.8209 150.902 24.9118 150.901 25.0046C150.9 25.0973 150.871 25.1877 150.819 25.2637C150.766 25.3398 150.692 25.398 150.607 25.4308C150.521 25.4636 150.427 25.4694 150.338 25.4475Z" fill="#263238"/>
<path d="M144.672 31.1591C144.813 31.4169 145.006 31.642 145.238 31.82C145.47 31.9981 145.736 32.1251 146.02 32.1931C146.266 32.2609 146.521 32.2883 146.776 32.274C146.823 32.2804 146.871 32.2804 146.918 32.274H147.053C147.087 32.2703 147.118 32.2555 147.143 32.2319C147.167 32.2082 147.183 32.1771 147.189 32.1432V32.0373V31.9813C147.232 31.5017 147.232 30.7356 147.232 30.7356C147.398 30.8352 148.259 31.2961 148.259 31.0408C148.333 28.8829 148.19 26.723 147.834 24.5942C147.83 24.5817 147.823 24.5709 147.812 24.5632C147.802 24.5555 147.789 24.5513 147.776 24.5513C147.763 24.5513 147.75 24.5555 147.74 24.5632C147.729 24.5709 147.722 24.5817 147.718 24.5942C147.638 26.606 147.908 28.6116 147.859 30.6297C147.551 30.4625 147.222 30.3388 146.881 30.2622C146.813 30.2622 146.912 31.6823 146.881 31.9003C146.493 31.9189 146.105 31.8585 145.741 31.7226C145.376 31.5867 145.042 31.3782 144.758 31.1093C144.691 31.0719 144.642 31.1093 144.672 31.1591Z" fill="#263238"/>
<path d="M146.506 32.0373C146.225 32.3664 145.865 32.6155 145.46 32.7599C145.238 32.8314 144.999 32.8314 144.777 32.7599C144.291 32.5979 144.309 32.137 144.42 31.7508C144.486 31.547 144.572 31.3507 144.678 31.1653C145.181 31.6445 145.821 31.9498 146.506 32.0373Z" fill="#263238"/>
<path d="M145.46 32.735C145.238 32.8066 144.999 32.8066 144.777 32.735C144.291 32.573 144.309 32.1121 144.42 31.726C144.681 31.7492 144.926 31.8619 145.115 32.0454C145.304 32.2288 145.426 32.4721 145.46 32.735Z" fill="#FF98B9"/>
<path d="M137.475 27.2787C139.382 27.833 141.32 19.5179 141.32 19.5179C142.292 20.3704 143.387 21.0677 144.568 21.5858C145.793 22.0236 147.061 22.3224 148.351 22.4765C148.64 22.4765 145.7 20.2092 145.7 20.2092C147.512 20.9821 149.461 21.3761 151.427 21.3678C152.898 21.2806 152.818 20.6452 152.879 20.1594C152.941 19.6736 151.064 14.6533 145.115 14.0741C143.913 13.9866 142.708 14.2019 141.607 14.7007C140.507 15.1996 139.546 15.9665 138.809 16.933C138.809 16.933 136.072 18.8016 135.789 20.1843C135.401 22.028 135.463 26.6932 137.475 27.2787Z" fill="#263238"/>
<path d="M148.4 27.7708C148.499 26.3507 149.336 25.2793 150.246 25.3229C151.157 25.3665 151.846 26.5687 151.747 28.0137C151.649 29.4587 150.812 30.5051 149.902 30.4553C148.991 30.4055 148.302 29.1847 148.4 27.7708ZM148.739 27.7708C148.653 29.0165 149.182 30.038 149.92 30.0878C150.658 30.1376 151.329 29.1847 151.415 27.9639C151.501 26.7431 150.972 25.6967 150.234 25.6406C149.496 25.5845 148.831 26.5687 148.739 27.7957V27.7708Z" fill="#455A64"/>
<path d="M142.027 27.3099C142.091 26.8442 142.287 26.4075 142.593 26.0535C142.899 25.6996 143.3 25.4439 143.747 25.3179C144.195 25.192 144.669 25.2012 145.111 25.3445C145.553 25.4879 145.945 25.759 146.237 26.1246C146.529 26.4902 146.709 26.9342 146.755 27.4021C146.8 27.87 146.71 28.3412 146.495 28.7578C146.28 29.1743 145.949 29.5181 145.543 29.7467C145.137 29.9753 144.674 30.0787 144.211 30.0443C143.564 29.9736 142.97 29.6462 142.561 29.1338C142.152 28.6213 141.96 27.9655 142.027 27.3099ZM142.365 27.3099C142.369 27.7105 142.487 28.1014 142.707 28.4349C142.926 28.7683 143.237 29.0298 143.6 29.1874C143.964 29.345 144.366 29.3919 144.755 29.3223C145.145 29.2528 145.506 29.0698 145.795 28.7957C146.083 28.5216 146.287 28.1683 146.38 27.779C146.474 27.3897 146.453 26.9813 146.321 26.6037C146.189 26.226 145.951 25.8956 145.636 25.6526C145.322 25.4097 144.944 25.2648 144.549 25.2358C143.986 25.2207 143.439 25.4326 143.03 25.8249C142.62 26.2173 142.381 26.7581 142.365 27.3286V27.3099Z" fill="#455A64"/>
<path d="M146.666 27.4095C147.964 27.0482 148.511 27.5154 148.511 27.5154L148.739 27.26C148.739 27.26 148.068 26.6372 146.567 27.0794L146.666 27.4095Z" fill="#455A64"/>
<path d="M142.212 27.0919L142.298 26.7618C142.082 26.7057 136.97 25.3603 136.41 25.2918C135.85 25.2233 134.38 25.9147 134.22 25.977L134.368 26.2884C134.986 25.9613 135.653 25.7383 136.343 25.6282C136.798 25.6904 140.378 26.6123 142.212 27.0919Z" fill="#455A64"/>
<path d="M138.773 26.6309C138.773 26.6309 137.278 23.3547 135.844 23.8467C134.411 24.3388 135.174 28.8296 136.601 29.6829C136.777 29.8051 136.976 29.8901 137.185 29.9328C137.394 29.9755 137.61 29.975 137.819 29.9314C138.028 29.8878 138.226 29.802 138.402 29.679C138.577 29.556 138.726 29.3985 138.84 29.2158L138.773 26.6309Z" fill="#D3766A"/>
<path d="M136.09 25.1237C136.09 25.1237 136.09 25.1237 136.09 25.1673C137.087 25.7901 137.474 26.9113 137.684 28.0324C137.64 27.914 137.572 27.8064 137.485 27.7167C137.397 27.6271 137.291 27.5575 137.175 27.5126C137.058 27.4678 136.933 27.4487 136.809 27.4567C136.685 27.4647 136.563 27.4996 136.453 27.559C136.416 27.559 136.453 27.6213 136.453 27.6213C136.652 27.5954 136.854 27.6323 137.031 27.7271C137.209 27.8219 137.353 27.9698 137.444 28.1508C137.595 28.4565 137.713 28.7782 137.794 29.11C137.831 29.2158 138.01 29.1909 137.997 29.0726C138.256 27.6774 137.536 25.5347 136.09 25.1237Z" fill="#263238"/>
<path d="M159.769 72.4609C159.769 74.7593 153.334 74.18 151.729 74.3793C150.123 74.5786 149.883 75.0022 150.695 75.4756C150.863 75.5556 151.038 75.6182 151.218 75.6624C148.72 75.1392 140.464 72.2242 140.464 72.2242C140.464 72.2242 145.423 70.5612 148.05 70.0255C150.677 69.4899 159.776 70.1501 159.769 72.4609Z" fill="#D3766A"/>
<path d="M175.205 60.6391C176.492 59.4608 177.903 58.429 179.413 57.5621C181.419 56.522 185.891 54.6534 186.654 54.0866L188.044 53.7689L183.516 84.5693L171.606 89.9633L150.012 87.6961L153.045 58.621L154.454 58.2784C154.454 58.2784 157.21 58.677 159.456 58.7767C161.701 58.8764 169.262 57.8922 175.205 60.6391Z" fill="white"/>
<path d="M169.883 91.0034L173.599 61.4363L152.11 58.459L148.911 88.5307L169.883 91.0034Z" fill="#5B75F3"/>
<path opacity="0.1" d="M169.883 91.0034L173.599 61.4363L152.11 58.459L148.911 88.5307L169.883 91.0034Z" fill="black"/>
<path d="M169.883 91.0035L172.892 90.6609L176.638 61.0938L173.599 61.4363L169.883 91.0035Z" fill="#5B75F3"/>
<path d="M172.892 90.6609L176.638 61.0937L188.61 53.4077L183.916 84.7873L172.892 90.6609Z" fill="#5B75F3"/>
<path opacity="0.1" d="M172.892 90.6609L176.638 61.0937L188.61 53.4077L183.916 84.7873L172.892 90.6609Z" fill="black"/>
<path d="M127.742 46.033C123.208 51.1716 108.628 72.6166 110.578 79.2002C111.857 83.5167 135.629 89.5272 140.723 90.175C142.95 90.4553 145.872 74.9586 144.303 73.1274C142.734 71.2962 128.413 71.2588 128.019 69.4587C127.625 67.6587 135.044 51.5204 136.263 45.4662C138.397 34.9274 130.609 42.7692 127.742 46.033Z" fill="#D3766A"/>
<path d="M164.697 81.5858C164.593 83.6163 161.48 84.2953 161.264 84.3326C161.455 84.3326 164.224 84.0337 163.977 86.0517C163.731 88.0698 160.994 89.2158 160.994 89.2158C160.994 89.2158 161.91 89.6954 161.08 91.0844C159.88 93.0776 154.928 93.6817 152.289 93.3828C149.649 93.0838 140.132 89.9944 138.686 89.4899L140.452 72.2242C140.452 72.2242 148.708 75.1392 151.206 75.6624H151.243C152.968 76.0722 154.716 76.3759 156.478 76.5718C159.277 76.7711 163.128 74.7032 163.596 76.7587C164.021 78.5961 161.209 79.7671 161.209 79.7671C161.209 79.7671 164.808 79.4868 164.697 81.5858Z" fill="#D3766A"/>
<path d="M161.068 79.7609C157.044 81.1187 155.051 81.0066 151.003 79.9913C150.988 79.9904 150.973 79.9943 150.961 80.0026C150.949 80.0108 150.939 80.0229 150.935 80.0371C150.93 80.0512 150.93 80.0665 150.934 80.0808C150.939 80.095 150.948 80.1073 150.96 80.1159C154.836 81.4737 157.315 81.9845 161.141 79.9539C161.326 79.8543 161.258 79.6986 161.068 79.7609Z" fill="#263238"/>
<path d="M161.418 84.2391C157.112 85.2793 154.959 85.1734 150.64 84.4322C150.578 84.4322 150.554 84.5257 150.64 84.5381C154.817 85.6281 157.303 86.0766 161.461 84.4696C161.621 84.3949 161.615 84.1893 161.418 84.2391Z" fill="#263238"/>
<path d="M160.938 89.1909C156.706 89.8947 154.331 89.8823 150.228 88.6179C150.21 88.6163 150.192 88.6208 150.177 88.6308C150.162 88.6408 150.15 88.6556 150.145 88.6729C150.139 88.6902 150.139 88.7089 150.145 88.7261C150.152 88.7432 150.163 88.7578 150.178 88.7674C154.233 90.4678 157.192 90.5051 160.945 89.3217C161.197 89.247 161.203 89.1473 160.938 89.1909Z" fill="#263238"/>
<path d="M188.395 61.9658C189.742 63.9091 192.701 66.1015 193.175 67.7957C193.312 68.2073 193.314 68.6527 193.181 69.0657C193.048 69.4786 192.787 69.8371 192.437 70.0878C192.437 70.0878 194.282 70.6546 194.485 72.2678C194.59 73.0963 193.372 73.9932 193.372 73.9932C193.784 74.1437 194.147 74.4066 194.42 74.7528C194.694 75.0991 194.868 75.5152 194.922 75.9552C194.996 77.1012 193.766 77.8238 193.766 77.8238C193.766 77.8238 194.941 78.976 194.639 80.1719C194.024 82.6011 184.408 84.2641 182.335 80.9318C181.363 79.3747 183.738 79.1006 183.738 79.1006C183.738 79.1006 180.225 78.6646 179.837 76.6652C179.45 74.6659 182.55 74.4915 182.55 74.4915C182.55 74.4915 179.155 74.0368 178.958 71.919C178.761 69.8013 181.886 70.0816 181.886 70.0816C181.886 70.0816 179.499 68.9854 179.714 67.3286C180.071 64.5942 184.673 67.1604 186.703 66.2822L187.275 62.545L188.395 61.9658Z" fill="#D3766A"/>
<path d="M190.843 64.7001C189.724 62.7506 191.84 59.7172 191.034 57.7116C189.945 54.9711 187.257 58.3034 187.251 62.5513L187.823 65.8524L190.843 64.7001Z" fill="#D3766A"/>
<path d="M193.587 77.967C193.618 77.967 193.636 78.0044 193.587 78.0169C190.437 79.4124 186.941 79.8034 183.566 79.138C183.461 79.138 183.449 78.9262 183.566 78.9325C186.935 79.1069 190.311 78.7816 193.587 77.967Z" fill="#100E3A"/>
<path d="M193.421 74.0057C193.458 74.0057 193.477 74.0555 193.421 74.0742C189.93 75.5755 186.024 75.7633 182.409 74.6036C182.286 74.56 182.218 74.3918 182.366 74.4292C184.87 75.1019 190.364 74.8092 193.421 74.0057Z" fill="#100E3A"/>
<path d="M181.628 69.9134C185.171 71.0097 188.703 70.8477 192.314 70.1501C192.357 70.1501 192.369 70.2124 192.314 70.2311C190.64 71.0595 188.297 71.2588 186.457 71.2588C184.749 71.2824 183.065 70.853 181.572 70.0131C181.529 70.0318 181.554 69.8885 181.628 69.9134Z" fill="#100E3A"/>
<path d="M119.307 55.2513L132.147 60.639C132.147 60.639 135.352 51.919 136.613 45.9333C137.874 39.9477 136.681 36.5406 129.741 43.1367C125.849 46.7885 122.351 50.8496 119.307 55.2513Z" fill="#263238"/>
<path d="M170.862 14.429C170.419 17.2257 168.038 19.5614 168.038 19.5614C168.038 19.5614 164.765 19.0133 162.833 16.9578C161.215 15.2512 161.172 12.8656 162.587 11.894C164.617 10.4988 166.408 14.2671 166.408 14.2671C166.408 14.2671 165.762 10.1375 168.216 10.1126C169.926 10.1001 171.212 12.1058 170.862 14.429Z" fill="#5B75F3"/>
<path d="M159.769 26.4689C158.644 27.3669 157.293 27.9279 155.869 28.0884C154.931 26.9946 154.313 25.6571 154.085 24.2266C153.931 22.52 154.971 21.1435 156.207 21.2431C157.979 21.3802 157.315 24.3574 157.315 24.3574C157.315 24.3574 158.797 21.7227 160.194 22.8314C161.172 23.5913 161.018 25.3104 159.769 26.4689Z" fill="#5B75F3"/>
<path d="M158.207 2.14006C157.82 2.91226 157.228 3.55951 156.497 4.00864C155.711 3.65886 155.038 3.09361 154.553 2.37674C154.036 1.48606 154.257 0.464566 154.952 0.196736C155.949 -0.183208 156.337 1.59817 156.337 1.59817C156.337 1.59817 156.478 -0.220581 157.518 0.0223339C158.244 0.184277 158.601 1.16217 158.207 2.14006Z" fill="#5B75F3"/>
</svg>
